<?xml version="1.0" encoding="utf-8"?>
<!-- Generator: Adobe Illustrator 17.0.0, SVG Export Plug-In . SVG Version: 6.00 Build 0)  -->
<!DOCTYPE svg PUBLIC "-//W3C//DTD SVG 1.1//EN" "http://www.w3.org/Graphics/SVG/1.1/DTD/svg11.dtd">
<svg version="1.1" id="Layer_1" xmlns="http://www.w3.org/2000/svg" xmlns:xlink="http://www.w3.org/1999/xlink" x="0px" y="0px"
	 width="203.165px" height="188.425px" viewBox="-0.335 3.317 203.165 188.425"
	 enable-background="new -0.335 3.317 203.165 188.425" xml:space="preserve">
<g>
	<polygon fill="#E8E8E8" points="31.665,171.997 15.665,163.997 -0.335,171.997 -0.335,119.59 31.665,119.59 	"/>
	<g>
		<g>
			<g>
				<g>
					<path fill="#FFFFFF" d="M18.044,92.224l1.802-1.052l0.206-2.104l1.501,1.45l2.013-0.43l-0.879,1.849l1.032,1.731l-2.037-0.18
						c0,0-0.361,0.401-0.665,0.805c-0.309,0.407-0.618,0.814-0.618,0.814s-0.138-0.512-0.276-1.025
						c-0.097-0.518-0.193-1.036-0.193-1.036L18.044,92.224z"/>
				</g>
				<g>
					<path fill="#FFFFFF" d="M18.147,79.818l1.911-0.779c0,0,0.11-0.517,0.259-1.027c0.139-0.511,0.279-1.021,0.279-1.021
						l1.239,1.65l2.062-0.13c0,0-0.308,0.417-0.57,0.845c-0.273,0.429-0.545,0.858-0.545,0.858L23.6,82.08l-1.999-0.476
						c0,0-0.387,0.35-0.774,0.7c-0.392,0.353-0.764,0.714-0.764,0.714s-0.049-0.526-0.079-1.052
						c-0.034-0.528-0.068-1.055-0.068-1.055L18.147,79.818z"/>
				</g>
				<g>
					<path fill="#FFFFFF" d="M20.113,67.562l2.007-0.487c0,0,0.179-0.496,0.404-0.979c0.214-0.484,0.429-0.968,0.429-0.968
						l0.978,1.815l2.059,0.178c0,0-0.359,0.368-0.684,0.751c-0.334,0.384-0.668,0.767-0.668,0.767l0.529,1.967l-1.906-0.766
						c0,0-0.435,0.289-0.871,0.578c-0.444,0.29-0.851,0.595-0.851,0.595s0.013-0.53,0.068-1.054
						c0.046-0.527,0.091-1.054,0.091-1.054L20.113,67.562z"/>
				</g>
				<g>
					<path fill="#FFFFFF" d="M23.881,55.732l2.057-0.183c0,0,0.256-0.462,0.549-0.906c0.283-0.447,0.567-0.894,0.567-0.894
						l0.699,1.941l2.009,0.482c0,0-0.415,0.309-0.792,0.64c-0.387,0.33-0.774,0.659-0.774,0.659l0.232,2.024l-1.77-1.042
						c0,0-0.473,0.221-0.947,0.442c-0.482,0.221-0.932,0.461-0.932,0.461s0.094-0.522,0.226-1.032
						c0.123-0.514,0.246-1.029,0.246-1.029L23.881,55.732z"/>
				</g>
				<g>
					<path fill="#FFFFFF" d="M29.366,44.595l2.059,0.123c0,0,0.338-0.409,0.685-0.81c0.345-0.401,0.69-0.802,0.69-0.802l0.408,2.026
						l1.914,0.774c0,0-0.453,0.246-0.887,0.51c-0.431,0.269-0.862,0.538-0.862,0.538l-0.067,2.039l-1.597-1.294
						c0,0-0.5,0.149-1,0.297c-0.505,0.149-0.998,0.313-0.998,0.313s0.184-0.494,0.383-0.983c0.197-0.491,0.394-0.982,0.394-0.982
						L29.366,44.595z"/>
				</g>
				<g>
					<path fill="#FFFFFF" d="M36.437,34.394l2.021,0.428l1.597-1.392l0.109,2.069l1.778,1.047c0,0-0.478,0.186-0.956,0.371
						c-0.467,0.201-0.935,0.403-0.935,0.403l-0.362,2.012L38.3,37.816l-2.069,0.307l1.06-1.828L36.437,34.394z"/>
				</g>
				<g>
					<path fill="#FFFFFF" d="M44.931,25.345c0,0,0.485,0.177,0.97,0.355c0.488,0.188,0.975,0.376,0.975,0.376l1.778-1.149
						l-0.192,2.067l1.603,1.296c0,0-0.499,0.115-0.997,0.23c-0.506,0.11-0.993,0.251-0.993,0.251l-0.648,1.942l-1.152-1.705
						l-2.087,0.004l1.311-1.659L44.931,25.345z"/>
				</g>
				<g>
					<polygon fill="#FFFFFF" points="54.666,17.643 56.489,18.663 58.413,17.782 57.922,19.803 59.316,21.32 57.272,21.495 
						56.349,23.327 55.46,21.47 53.399,21.172 54.935,19.716 					"/>
				</g>
				<g>
					<path fill="#FFFFFF" d="M65.438,11.471l1.652,1.279l2.031-0.593l-0.783,1.931l1.153,1.706l-2.046-0.127
						c0,0-0.307,0.409-0.6,0.833c-0.293,0.419-0.585,0.838-0.585,0.838l-0.605-1.97l-1.991-0.595l1.731-1.219
						c0,0,0.007-0.522,0.015-1.044C65.424,11.991,65.438,11.471,65.438,11.471z"/>
				</g>
				<g>
					<path fill="#FFFFFF" d="M77.01,6.968l1.443,1.509l2.095-0.287l-1.062,1.795l0.886,1.858l-2.003-0.428
						c0,0-0.368,0.348-0.719,0.729c-0.351,0.372-0.703,0.744-0.703,0.744l-0.305-2.039l-1.879-0.881l1.892-0.952
						c0,0,0.085-0.516,0.17-1.032C76.917,7.476,77.01,6.968,77.01,6.968z"/>
				</g>
				<g>
					<path fill="#FFFFFF" d="M89.122,4.235l1.202,1.708l2.115,0.03l-1.317,1.616l0.6,1.969l-1.918-0.723
						c0,0-0.415,0.291-0.819,0.615c-0.403,0.315-0.806,0.631-0.806,0.631l0.002-2.062l-1.727-1.151l2.012-0.66
						c0,0,0.161-0.497,0.321-0.995C88.955,4.724,89.122,4.235,89.122,4.235z"/>
				</g>
				<g>
					<polygon fill="#FFFFFF" points="101.5,3.317 102.438,5.187 104.525,5.536 102.986,6.935 103.292,8.972 101.5,7.968 
						99.708,8.972 100.013,6.935 98.474,5.536 100.562,5.187 					"/>
				</g>
				<g>
					<path fill="#FFFFFF" d="M113.878,4.235c0,0,0.167,0.489,0.335,0.979c0.161,0.497,0.321,0.995,0.321,0.995l2.012,0.66
						l-1.727,1.151l0.002,2.062c0,0-0.403-0.315-0.806-0.631c-0.404-0.324-0.819-0.615-0.819-0.615l-1.918,0.723l0.6-1.969
						l-1.317-1.616l2.115-0.03L113.878,4.235z"/>
				</g>
				<g>
					<path fill="#FFFFFF" d="M125.99,6.968c0,0,0.093,0.508,0.186,1.016c0.085,0.516,0.17,1.032,0.17,1.032l1.892,0.952
						l-1.879,0.881l-0.305,2.039c0,0-0.351-0.372-0.703-0.744c-0.351-0.381-0.719-0.729-0.719-0.729l-2.003,0.428l0.886-1.858
						l-1.062-1.795l2.095,0.287L125.99,6.968z"/>
				</g>
				<g>
					<path fill="#FFFFFF" d="M137.562,11.471c0,0,0.015,0.519,0.029,1.039c0.007,0.522,0.015,1.044,0.015,1.044l1.731,1.219
						l-1.991,0.595l-0.605,1.97c0,0-0.293-0.419-0.585-0.838c-0.293-0.425-0.6-0.833-0.6-0.833l-2.046,0.127l1.153-1.706
						l-0.783-1.931l2.031,0.593L137.562,11.471z"/>
				</g>
				<g>
					<polygon fill="#FFFFFF" points="148.334,17.643 148.065,19.716 149.601,21.172 147.54,21.47 146.651,23.327 145.728,21.495 
						143.684,21.32 145.078,19.803 144.587,17.782 146.511,18.663 					"/>
				</g>
				<g>
					<path fill="#FFFFFF" d="M158.069,25.345l-0.569,2.008l1.311,1.659l-2.087-0.004l-1.152,1.705l-0.648-1.942
						c0,0-0.486-0.141-0.993-0.251c-0.499-0.115-0.997-0.23-0.997-0.23l1.603-1.296l-0.192-2.067l1.779,1.149
						c0,0,0.488-0.188,0.975-0.376C157.584,25.523,158.069,25.345,158.069,25.345z"/>
				</g>
				<g>
					<path fill="#FFFFFF" d="M166.563,34.394l-0.855,1.9l1.06,1.828l-2.069-0.307l-1.389,1.516l-0.362-2.012
						c0,0-0.467-0.201-0.935-0.403c-0.478-0.186-0.956-0.371-0.956-0.371l1.778-1.047l0.109-2.069l1.597,1.392L166.563,34.394z"/>
				</g>
				<g>
					<path fill="#FFFFFF" d="M173.634,44.595l-1.123,1.751c0,0,0.197,0.491,0.394,0.982c0.199,0.489,0.383,0.983,0.383,0.983
						s-0.492-0.164-0.998-0.313c-0.5-0.149-1-0.297-1-0.297l-1.597,1.294l-0.067-2.039c0,0-0.431-0.269-0.862-0.538
						c-0.434-0.264-0.887-0.51-0.887-0.51l1.914-0.774l0.408-2.026c0,0,0.345,0.401,0.69,0.802c0.347,0.401,0.685,0.81,0.685,0.81
						L173.634,44.595z"/>
				</g>
				<g>
					<path fill="#FFFFFF" d="M179.119,55.732l-1.368,1.564c0,0,0.123,0.514,0.246,1.029c0.132,0.51,0.226,1.032,0.226,1.032
						s-0.45-0.24-0.932-0.461c-0.473-0.221-0.947-0.442-0.947-0.442l-1.77,1.042l0.232-2.024c0,0-0.387-0.33-0.774-0.659
						c-0.377-0.331-0.792-0.64-0.792-0.64l2.009-0.482l0.699-1.941c0,0,0.283,0.447,0.567,0.894
						c0.292,0.444,0.549,0.906,0.549,0.906L179.119,55.732z"/>
				</g>
				<g>
					<path fill="#FFFFFF" d="M182.886,67.562l-1.585,1.342c0,0,0.046,0.527,0.091,1.054c0.055,0.524,0.068,1.054,0.068,1.054
						s-0.407-0.305-0.851-0.595c-0.435-0.289-0.871-0.578-0.871-0.578l-1.906,0.766l0.529-1.967c0,0-0.334-0.384-0.668-0.767
						c-0.325-0.383-0.684-0.751-0.684-0.751l2.059-0.178l0.978-1.815c0,0,0.214,0.484,0.429,0.968
						c0.225,0.482,0.404,0.979,0.404,0.979L182.886,67.562z"/>
				</g>
				<g>
					<path fill="#FFFFFF" d="M184.853,79.818l-1.768,1.092c0,0-0.034,0.528-0.068,1.055c-0.031,0.527-0.079,1.052-0.079,1.052
						s-0.371-0.361-0.764-0.714c-0.387-0.35-0.774-0.7-0.774-0.7L179.4,82.08l0.819-1.868c0,0-0.273-0.429-0.545-0.858
						c-0.262-0.428-0.57-0.845-0.57-0.845l2.062,0.13l1.239-1.65c0,0,0.139,0.511,0.279,1.021c0.149,0.511,0.259,1.027,0.259,1.027
						L184.853,79.818z"/>
				</g>
				<g>
					<path fill="#FFFFFF" d="M184.956,92.224l-1.884,0.824c0,0-0.097,0.518-0.193,1.036c-0.138,0.512-0.276,1.025-0.276,1.025
						s-0.309-0.407-0.618-0.814c-0.304-0.404-0.665-0.805-0.665-0.805l-2.037,0.18l1.032-1.731l-0.879-1.849l2.013,0.43l1.501-1.45
						l0.206,2.104L184.956,92.224z"/>
				</g>
			</g>
		</g>
	</g>
	<polygon fill="#E8E8E8" points="201.665,171.997 185.665,163.997 169.665,171.997 169.665,119.59 201.665,119.59 	"/>
	<path fill="none" stroke="#FFFFFF" stroke-width="29.6831" stroke-miterlimit="10" d="M188.825,113.866
		c-12.892,36.762-47.047,63.035-87.154,63.035c-40.107,0-74.261-26.272-87.154-63.034"/>
	<g>
		<path fill="#63CCFF" d="M25.653,124.106l4.384,7.669l-2.079,1.188l-3.117-5.453l-2.212,1.264l2.747,4.806l-2.079,1.188
			l-2.747-4.806l-4.023,2.299l-1.267-2.216L25.653,124.106z"/>
		<path fill="#63CCFF" d="M25.526,137.329l5.396-4.199l1.57,2.014l-5.342,4.157c-1.538,1.197-1.752,2.562-0.794,3.791
			c0.958,1.229,2.308,1.376,3.805,0.211l5.409-4.21l1.57,2.014l-5.328,4.147c-2.86,2.226-5.476,1.761-7.392-0.697
			S22.747,139.492,25.526,137.329z"/>
		<path fill="#63CCFF" d="M34.164,146.79l0.023-0.025c2.353-2.457,6.078-2.747,8.653-0.28c1.581,1.515,2.007,2.964,2.029,4.5
			l-2.51,0.27c-0.067-1.224-0.371-2.226-1.21-3.029c-1.413-1.354-3.59-1.12-5.01,0.362l-0.024,0.025
			c-1.419,1.481-1.607,3.668-0.17,5.045c0.958,0.918,1.924,1.085,3.174,1.099l0.003,2.347c-1.773,0.124-3.299-0.201-4.916-1.75
			C31.74,152.989,31.787,149.271,34.164,146.79z"/>
		<path fill="#63CCFF" d="M47.222,150.753l2.065,1.502l-3.077,4.23l6.886-1.461l2.495,1.813l-6.809,1.327l-0.055,8.477l-2.481-1.804
			l0.086-6.235l-1.931,0.371l-2.152,2.958l-2.065-1.501L47.222,150.753z"/>
		<path fill="#63CCFF" d="M61.228,168.027l-0.989-8.453l2.705,1.258l0.486,5.523l4.579-3.168l2.63,1.223l-7.075,4.647l-2.009,4.325
			l-2.315-1.076L61.228,168.027z"/>
		<path fill="#63CCFF" d="M68.688,170.122l0.01-0.033c1.005-3.249,4.315-5.141,7.736-4.083s5.063,4.446,4.058,7.695l-0.01,0.033
			c-1.005,3.249-4.315,5.141-7.736,4.083S67.683,173.371,68.688,170.122z M77.922,172.978l0.01-0.033
			c0.606-1.959-0.283-4.023-2.247-4.63c-1.964-0.607-3.821,0.572-4.427,2.531l-0.01,0.033c-0.606,1.959,0.283,4.023,2.247,4.63
			C75.459,176.116,77.316,174.937,77.922,172.978z"/>
		<path fill="#63CCFF" d="M82.673,175.031l1.038-6.757l2.524,0.388l-1.027,6.689c-0.296,1.926,0.485,3.066,2.026,3.302
			s2.623-0.583,2.91-2.458l1.04-6.773l2.524,0.388l-1.025,6.672c-0.55,3.581-2.77,5.038-5.851,4.565
			C83.75,180.574,82.138,178.511,82.673,175.031z"/>
		<path fill="#63CCFF" d="M100.858,176.194l-0.002-0.034c-0.164-3.398,2.185-6.302,5.745-6.476c2.185-0.107,3.53,0.581,4.658,1.621
			l-1.529,2.009c-0.934-0.793-1.87-1.261-3.029-1.204c-1.954,0.095-3.28,1.837-3.181,3.886l0.002,0.034
			c0.099,2.049,1.555,3.689,3.542,3.592c1.324-0.065,2.109-0.651,2.979-1.549l1.704,1.611c-1.129,1.373-2.414,2.257-4.649,2.366
			C103.688,182.217,101.024,179.626,100.858,176.194z"/>
		<path fill="#63CCFF" d="M113.334,175.506l-0.007-0.034c-0.653-3.34,1.369-6.574,4.885-7.26c3.517-0.686,6.569,1.525,7.221,4.865
			l0.007,0.034c0.653,3.34-1.369,6.574-4.885,7.26C117.039,181.057,113.987,178.846,113.334,175.506z M122.826,173.656l-0.007-0.034
			c-0.394-2.014-2.155-3.413-4.173-3.02s-3.097,2.311-2.704,4.326l0.007,0.034c0.394,2.014,2.155,3.413,4.173,3.02
			S123.22,175.67,122.826,173.656z"/>
		<path fill="#63CCFF" d="M125.877,166.724l2.221-0.782l7.576,5.145l-2.446-6.951l2.377-0.837l3.973,11.29l-2.049,0.722l-7.828-5.31
			l2.526,7.177l-2.377,0.837L125.877,166.724z"/>
		<path fill="#63CCFF" d="M139.609,168.145l-0.016-0.03c-1.551-3.027-0.535-6.678,2.593-8.279c1.859-0.952,3.246-1.009,4.806-0.617
			l-0.519,2.513c-1.148-0.277-2.059-0.31-3.254,0.302c-1.653,0.846-2.194,3.024-1.266,4.835l0.016,0.03
			c0.998,1.947,3.029,2.713,4.859,1.776c0.826-0.423,1.455-1.014,1.812-1.734l-0.78-1.521l-2.287,1.171l-1.037-2.023l4.486-2.296
			l2.37,4.625c-0.587,1.472-1.658,2.98-3.546,3.947C144.629,172.489,141.223,171.294,139.609,168.145z"/>
		<path fill="#63CCFF" d="M148.561,156.568l4.351-3.037c1.21-0.845,2.393-1.149,3.468-0.94c0.912,0.177,1.735,0.749,2.381,1.674
			l0.02,0.028c1.105,1.585,0.97,3.159,0.083,4.467l4.77,1.883l-2.447,1.708l-4.23-1.717l-0.027,0.019l-1.618,1.13l2.191,3.141
			l-2.094,1.462L148.561,156.568z M156.101,158.394c1.02-0.712,1.213-1.681,0.636-2.508l-0.02-0.028
			c-0.646-0.926-1.604-0.966-2.623-0.254l-2.08,1.452l1.966,2.818L156.101,158.394z"/>
		<path fill="#63CCFF" d="M158.118,149.678l6.478-5.889l1.574,1.733l-4.601,4.183l1.632,1.796l4.048-3.681l1.574,1.733l-4.049,3.681
			l1.689,1.859l4.662-4.239l1.574,1.733l-6.539,5.945L158.118,149.678z"/>
		<path fill="#63CCFF" d="M173.302,149.488l-0.431-2.36c1.355-0.214,2.496-0.677,3.36-1.684c0.681-0.793,0.767-1.55,0.235-2.007
			l-0.026-0.022c-0.506-0.434-1.024-0.355-2.678,0.784c-1.99,1.374-3.479,2.085-5.282,0.537l-0.026-0.022
			c-1.647-1.415-1.635-3.634-0.09-5.434c1.102-1.284,2.457-2.023,3.963-2.282l0.64,2.299c-1.228,0.302-2.224,0.78-2.861,1.522
			c-0.637,0.743-0.622,1.434-0.181,1.812l0.026,0.022c0.597,0.512,1.115,0.302,2.825-0.876c2.014-1.375,3.54-1.814,5.122-0.455
			l0.026,0.022c1.803,1.548,1.669,3.751,0.038,5.652C176.819,148.331,175.183,149.266,173.302,149.488z"/>
		<path fill="#63CCFF" d="M180.717,140.658l-0.72-2.286c1.318-0.381,2.393-0.982,3.125-2.088c0.577-0.871,0.568-1.632-0.016-2.019
			l-0.029-0.019c-0.556-0.368-1.061-0.224-2.559,1.11c-1.804,1.61-3.193,2.5-5.174,1.189l-0.029-0.019
			c-1.81-1.198-2.073-3.4-0.764-5.377c0.934-1.41,2.187-2.311,3.649-2.755l0.921,2.2c-1.18,0.452-2.109,1.05-2.65,1.865
			c-0.54,0.816-0.439,1.499,0.045,1.819l0.029,0.019c0.656,0.434,1.144,0.161,2.694-1.22c1.827-1.614,3.287-2.239,5.025-1.089
			l0.028,0.019c1.981,1.311,2.122,3.512,0.74,5.599C184.061,139.073,182.555,140.204,180.717,140.658z"/>
	</g>
	<g>
		<defs>
			<circle id="SVGID_1_" cx="101.5" cy="86.997" r="67.19"/>
		</defs>
		<clipPath id="SVGID_2_">
			<use xlink:href="#SVGID_1_"  overflow="visible"/>
		</clipPath>
		<g clip-path="url(#SVGID_2_)">
			<rect x="24.665" y="21.59" fill="#FFFFFF" width="144" height="138"/>
			<line fill="none" stroke="#E53E3E" stroke-width="22" stroke-miterlimit="10" x1="15.665" y1="34.59" x2="175.665" y2="34.59"/>
			<line fill="none" stroke="#E53E3E" stroke-width="22" stroke-miterlimit="10" x1="15.665" y1="71.59" x2="175.665" y2="71.59"/>
			
				<line fill="none" stroke="#E53E3E" stroke-width="22" stroke-miterlimit="10" x1="15.665" y1="109.59" x2="175.665" y2="109.59"/>
			
				<rect x="-4.835" y="-12.91" fill="#4BBFF1" stroke="#FFFFFF" stroke-width="3" stroke-miterlimit="10" width="106" height="110"/>
			<g>
				<g>
					<g>
						<g>
							<polygon fill="#FFFFFF" points="39.833,37.2 41,39.37 43.611,39.718 41.722,41.408 42.168,43.794 39.833,42.668 
								37.498,43.794 37.944,41.408 36.055,39.718 38.665,39.37 							"/>
						</g>
						<g>
							<polygon fill="#FFFFFF" points="54.944,37.2 56.111,39.37 58.722,39.718 56.833,41.408 57.279,43.794 54.944,42.668 
								52.609,43.794 53.055,41.408 51.166,39.718 53.777,39.37 							"/>
						</g>
						<g>
							<polygon fill="#FFFFFF" points="70.055,37.2 71.222,39.37 73.833,39.718 71.944,41.408 72.39,43.794 70.055,42.668 
								67.72,43.794 68.166,41.408 66.277,39.718 68.888,39.37 							"/>
						</g>
						<g>
							<polygon fill="#FFFFFF" points="85.166,37.2 86.333,39.37 88.944,39.718 87.055,41.408 87.501,43.794 85.166,42.668 
								82.831,43.794 83.277,41.408 81.388,39.718 83.999,39.37 							"/>
						</g>
					</g>
				</g>
			</g>
			<g>
				<g>
					<g>
						<g>
							<polygon fill="#FFFFFF" points="39.833,56.7 41,58.87 43.611,59.218 41.722,60.908 42.168,63.294 39.833,62.168 
								37.498,63.294 37.944,60.908 36.055,59.218 38.665,58.87 							"/>
						</g>
						<g>
							<polygon fill="#FFFFFF" points="54.944,56.7 56.111,58.87 58.722,59.218 56.833,60.908 57.279,63.294 54.944,62.168 
								52.609,63.294 53.055,60.908 51.166,59.218 53.777,58.87 							"/>
						</g>
						<g>
							<polygon fill="#FFFFFF" points="70.055,56.7 71.222,58.87 73.833,59.218 71.944,60.908 72.39,63.294 70.055,62.168 
								67.72,63.294 68.166,60.908 66.277,59.218 68.888,58.87 							"/>
						</g>
						<g>
							<polygon fill="#FFFFFF" points="85.166,56.7 86.333,58.87 88.944,59.218 87.055,60.908 87.501,63.294 85.166,62.168 
								82.831,63.294 83.277,60.908 81.388,59.218 83.999,58.87 							"/>
						</g>
					</g>
				</g>
			</g>
			<g>
				<g>
					<g>
						<g>
							<polygon fill="#FFFFFF" points="54.071,76.2 55.263,78.37 57.928,78.718 56,80.408 56.455,82.794 54.071,81.668 
								51.687,82.794 52.143,80.408 50.214,78.718 52.879,78.37 							"/>
						</g>
						<g>
							<polygon fill="#FFFFFF" points="69.5,76.2 70.692,78.37 73.357,78.718 71.428,80.408 71.883,82.794 69.5,81.668 
								67.116,82.794 67.571,80.408 65.643,78.718 68.308,78.37 							"/>
						</g>
						<g>
							<polygon fill="#FFFFFF" points="84.928,76.2 86.12,78.37 88.785,78.718 86.857,80.408 87.312,82.794 84.928,81.668 
								82.544,82.794 83,80.408 81.071,78.718 83.736,78.37 							"/>
						</g>
					</g>
				</g>
			</g>
			
				<line fill="none" stroke="#E53E3E" stroke-width="22" stroke-miterlimit="10" x1="15.665" y1="146.59" x2="175.665" y2="146.59"/>
		</g>
	</g>
	<circle fill="none" stroke="#FFFFFF" stroke-width="7.1143" stroke-miterlimit="10" cx="101.5" cy="86.997" r="67.19"/>
	<path fill="#4BBFF1" d="M84.9,128.102"/>
	<circle fill="none" stroke="#E53E3E" stroke-width="3.7619" stroke-miterlimit="10" cx="101.5" cy="86.997" r="63.19"/>
</g>
</svg>
