<?xml version="1.0" encoding="utf-8"?>
<!-- Generator: Adobe Illustrator 17.0.0, SVG Export Plug-In . SVG Version: 6.00 Build 0)  -->
<!DOCTYPE svg PUBLIC "-//W3C//DTD SVG 1.1//EN" "http://www.w3.org/Graphics/SVG/1.1/DTD/svg11.dtd">
<svg version="1.1" id="Layer_1" xmlns="http://www.w3.org/2000/svg" xmlns:xlink="http://www.w3.org/1999/xlink" x="0px" y="0px"
	 width="201px" height="227.006px" viewBox="0 0 201 227.006" enable-background="new 0 0 201 227.006" xml:space="preserve">
<g>
	<g>
		<g>
			
				<line fill="none" stroke="#231F20" stroke-width="2" stroke-linejoin="round" stroke-miterlimit="10" x1="102" y1="214.003" x2="114" y2="214.003"/>
			
				<line fill="none" stroke="#231F20" stroke-width="2" stroke-linejoin="round" stroke-miterlimit="10" x1="108" y1="214.003" x2="108" y2="226.003"/>
		</g>
		<g>
			<path fill="none" stroke="#231F20" stroke-width="2" stroke-linejoin="round" stroke-miterlimit="10" d="M62.187,216.191
				c0-1.585-2.04-2.545-5.009-2.545c-2.969,0-5.141,1.246-5.141,2.88c0,4.63,11.16,0.672,11.16,5.396
				c0,2.126-2.495,3.101-5.927,3.101c-3.432,0-5.659-0.779-5.659-2.841"/>
		</g>
		<path fill="none" stroke="#231F20" stroke-width="2" stroke-linejoin="round" stroke-miterlimit="10" d="M98,220.712
			c0,2.534-2.899,4.588-6,4.588l0,0c-3.1,0-6-2.054-6-4.588v-3.297c0-2.534,2.9-4.587,6-4.587l0,0c3.101,0,6,2.053,6,4.587V220.712z
			"/>
		<g>
			
				<line fill="none" stroke="#231F20" stroke-width="2" stroke-linejoin="round" stroke-miterlimit="10" x1="80.1" y1="218.77" x2="68.726" y2="220.52"/>
			
				<line fill="none" stroke="#231F20" stroke-width="2" stroke-linejoin="round" stroke-miterlimit="10" x1="69" y1="213.003" x2="69" y2="226.003"/>
			
				<line fill="none" stroke="#231F20" stroke-width="2" stroke-linejoin="round" stroke-miterlimit="10" x1="80" y1="213.003" x2="80" y2="226.003"/>
		</g>
		<g>
			
				<line fill="none" stroke="#231F20" stroke-width="2" stroke-linejoin="round" stroke-miterlimit="10" x1="128" y1="213.003" x2="128" y2="226.003"/>
			
				<line fill="none" stroke="#231F20" stroke-width="2" stroke-linejoin="round" stroke-miterlimit="10" x1="139" y1="213.003" x2="139" y2="226.003"/>
			
				<line fill="none" stroke="#231F20" stroke-width="2" stroke-linejoin="round" stroke-miterlimit="10" x1="138.726" y1="218.833" x2="128.726" y2="220.833"/>
		</g>
		<polyline fill="none" stroke="#231F20" stroke-width="2" stroke-linejoin="round" stroke-miterlimit="10" points="161,226.003 
			161,213.675 168,225.02 175,213.411 175,226.003 		"/>
		<g>
			
				<line fill="none" stroke="#231F20" stroke-width="2" stroke-linejoin="round" stroke-miterlimit="10" x1="32" y1="214.003" x2="32" y2="224.003"/>
			
				<line fill="none" stroke="#231F20" stroke-width="2" stroke-linejoin="round" stroke-miterlimit="10" x1="27" y1="214.003" x2="37" y2="214.003"/>
			
				<line fill="none" stroke="#231F20" stroke-width="2" stroke-linejoin="round" stroke-miterlimit="10" x1="27" y1="225.003" x2="37" y2="225.003"/>
		</g>
		<g>
			<polyline fill="none" stroke="#231F20" stroke-width="2" stroke-linejoin="round" stroke-miterlimit="10" points="145,214.003 
				149.726,214.003 155,214.003 			"/>
			<polyline fill="none" stroke="#231F20" stroke-width="2" stroke-linejoin="round" stroke-miterlimit="10" points="145,225.003 
				149.726,225.003 155,225.003 			"/>
			
				<line fill="none" stroke="#231F20" stroke-width="2" stroke-linejoin="round" stroke-miterlimit="10" x1="150" y1="214.003" x2="150" y2="225.003"/>
		</g>
	</g>
	<g>
		<path fill="#231F20" d="M168.942,29.538C150.661,11.257,126.353,1.189,100.5,1.189S50.343,11.257,32.061,29.538
			C13.78,47.819,3.712,72.123,3.712,97.977s10.068,50.157,28.349,68.439c18.281,18.281,42.585,28.349,68.439,28.349
			s50.161-10.068,68.442-28.349c18.281-18.281,28.346-42.585,28.346-68.439S187.223,47.819,168.942,29.538z M100.5,192.942
			c-25.366,0-49.211-9.879-67.149-27.816C15.414,147.191,5.539,123.343,5.539,97.977s9.875-49.214,27.813-67.149
			C51.289,12.89,75.134,3.012,100.5,3.012c25.366,0,49.214,9.879,67.152,27.816c17.934,17.934,27.813,41.783,27.813,67.149
			s-9.879,49.214-27.813,67.149C149.714,183.063,125.866,192.942,100.5,192.942z"/>
		<path fill="#231F20" d="M168.942,29.538C150.661,11.257,126.353,1.189,100.5,1.189S50.343,11.257,32.061,29.538
			C13.78,47.819,3.712,72.123,3.712,97.977s10.068,50.157,28.349,68.439c18.281,18.281,42.585,28.349,68.439,28.349
			s50.161-10.068,68.442-28.349c18.281-18.281,28.346-42.585,28.346-68.439S187.223,47.819,168.942,29.538z M100.5,192.942
			c-25.366,0-49.211-9.879-67.149-27.816C15.414,147.191,5.539,123.343,5.539,97.977s9.875-49.214,27.813-67.149
			C51.289,12.89,75.134,3.012,100.5,3.012c25.366,0,49.214,9.879,67.152,27.816c17.934,17.934,27.813,41.783,27.813,67.149
			s-9.879,49.214-27.813,67.149C149.714,183.063,125.866,192.942,100.5,192.942z"/>
		<g>
			<path fill="#231F20" d="M190.449,89.262l-24.507-19.396c-0.13-0.095-3.148-2.391-6.352-2.391h-6.604
				c-1.676-2.976-4.69-6.107-9.966-6.107h-5.518c-0.536,0-2.286,0.193-2.286,2.664v3.442H87.224
				c-0.091-2.997-2.559-5.413-5.581-5.413H62.437c-2.489,0-4.599,1.634-5.318,3.884c-1.244-3.681-3.411-7.102-6.482-9.896
				c-1.693-1.542-3.604-2.832-5.675-3.828c-0.372-0.179-0.813-0.095-1.09,0.21c-0.277,0.305-0.322,0.754-0.109,1.108
				c4.757,7.88,3.979,18.046-1.802,25.128c-3.811,2.731-7.2,5.928-10.156,9.584c-11.358,14.05-13.055,31.01-13.055,39.872v0.074
				c0,14.583,11.866,26.449,26.449,26.449c13.409,0,24.518-10.029,26.221-22.979c0.834-0.088,1.616-0.361,2.3-0.778
				c4.701,4.771,11.228,7.74,18.443,7.765h0.088c6.517,0,12.753-2.419,17.559-6.815c4.568-4.175,7.481-9.787,8.262-15.884
				l1.616,0.007c2.321,0,4.319-1.43,5.16-3.456h33.117c4.725,0,7.803-2.265,7.951-2.377l24.532-19.41
				c0.224-0.175,0.354-0.445,0.354-0.729C190.803,89.707,190.673,89.437,190.449,89.262z M137.077,64.033
				c0-0.803,0.207-0.803,0.424-0.803h5.518c3.292,0,5.917,1.427,7.814,4.245h-13.756V64.033z M135.215,69.336h0.929h0.932h14.804
				h1.013h0.992h3.562c-1.034,1.188-2.044,3.081-2.044,5.924c0,2.633,0.866,4.449,1.816,5.647H87.617V69.336H135.215z
				 M73.753,120.44c1.031-1.886,2.436-3.639,4.207-5.016c0.438,0.715,0.915,1.42,1.423,2.117
				c4.764,6.545,11.106,10.611,16.543,10.611c0.004,0,0.004,0,0.004,0c0.165,0,0.329-0.003,0.498-0.01
				c0.403-0.018,0.75-0.294,0.855-0.687c0.105-0.389-0.053-0.806-0.393-1.024c-4.831-3.113-8.007-8.403-9.09-13.924h19.308
				c0.109,0.256,0.231,0.505,0.379,0.74c0.971,1.609,2.734,2.685,4.75,2.692l1.146,0.004c-1.609,10.369-10.517,18.064-21.131,18.064
				h-0.074c-6.184-0.021-11.877-2.678-15.828-7.064c0.039-0.27,0.06-0.543,0.06-0.824v-0.925
				C76.41,123.188,75.348,121.425,73.753,120.44z M58.801,91.44l-6.034,3.912l-5.336-8.231c1.954-1.112,4.082-2.123,6.4-3.008
				c0.428-0.165,0.862-0.326,1.304-0.477c0.4-0.144,0.803-0.28,1.213-0.414c0.158-0.053,0.315-0.102,0.477-0.151v0.897
				C56.824,86.684,57.545,89.233,58.801,91.44z M45.835,88.079l5.371,8.285l-12.712,8.241l-3.899-6.015
				c1.687-2.337,3.683-4.589,6.059-6.668c0.235-0.203,0.47-0.407,0.712-0.606c0.242-0.203,0.484-0.403,0.733-0.599
				C43.259,89.794,44.505,88.913,45.835,88.079z M52.218,97.925l8.241,12.712l-12.712,8.242l-8.241-12.712L52.218,97.925z
				 M33.451,100.247l3.481,5.37l-8.615,5.585C29.468,107.603,31.109,103.85,33.451,100.247z M27.526,113.933l10.419-6.755
				l8.241,12.712l-12.713,8.242l-6.781-10.46C26.916,116.467,27.192,115.215,27.526,113.933z M47.198,121.451l8.242,12.713
				l-12.714,8.242l-8.242-12.713L47.198,121.451z M26.252,120.414l5.66,8.73l-5.603,3.633c-0.378-1.519-0.582-3.106-0.582-4.74
				v-0.063C25.727,126.079,25.838,123.457,26.252,120.414z M32.924,130.705l8.242,12.713l-3.87,2.509
				c-4.833-2.185-8.628-6.268-10.427-11.297L32.924,130.705z M42.178,144.979l1.701,2.624c-1.534-0.115-3.02-0.402-4.437-0.85
				L42.178,144.979z M46.124,147.647l-2.385-3.68l12.714-8.242l3.504,5.405C56.521,144.958,51.609,147.434,46.124,147.647z
				 M61.19,139.613l-3.177-4.9l6.833-4.43c-0.019,0.163-0.033,0.328-0.057,0.488c-0.042,0.312-0.091,0.62-0.151,0.929
				C64.085,134.616,62.882,137.304,61.19,139.613z M64.947,126.081c0.017,0.754,0.033,1.403,0.035,1.898l-7.98,5.174l-8.242-12.713
				l12.712-8.241l3.509,5.412c-0.031,0.681-0.053,1.35-0.068,1.999c-0.007,0.316-0.011,0.628-0.014,0.932
				c-0.007,0.316-0.007,0.624-0.011,0.929C64.88,123.252,64.919,124.829,64.947,126.081z M65.188,114.511l-2.156-3.325l2.864-1.857
				C65.567,111.043,65.342,112.794,65.188,114.511z M66.489,106.728l-4.468,2.897l-8.241-12.712l6.038-3.914
				c2.417,3.245,6.1,5.494,10.311,6.009C68.431,101.074,67.274,103.783,66.489,106.728z M58.686,83.969v-1.448
				c0-0.312,0.004-0.627,0.004-0.95v-0.978c0.007-2.64,0.018-5.507,0.025-7.863c0.004-0.123,0.004-0.242,0.004-0.361
				c0-0.165,0.001-0.327,0.002-0.486c0.001-0.159,0.002-0.314,0.002-0.464v-0.056c0.004-0.33,0.004-0.645,0.004-0.943
				c0.004-0.55,0.007-1.038,0.007-1.441c0.004-0.13,0.004-0.252,0.004-0.365h6.853h14.615h5.041c0,0.298,0,0.596,0.004,0.901
				c0,0.322,0,0.649,0,0.98c0,0.33,0.001,0.664,0.003,1.001c0.004,0.435,0.004,0.88,0.007,1.325l0,0l0,0
				c0.004,0.961,0.011,1.942,0.014,2.938c0.003,0.046,0.003,0.095,0,0.14c-0.004,2.219-0.007,4.904-0.007,8.07
				c0,2.24-0.557,4.354-1.542,6.208c-0.151,0.284-0.308,0.561-0.48,0.831c-0.175,0.284-0.365,0.557-0.564,0.827
				c-0.855,1.164-1.9,2.184-3.085,3.018c-0.291,0.203-0.589,0.396-0.897,0.575c-0.305,0.182-0.617,0.351-0.939,0.505h-0.004
				l-0.004,0.004c-0.389,0.186-0.782,0.358-1.192,0.508c-0.375,0.137-0.757,0.259-1.146,0.361c-0.351,0.095-0.705,0.175-1.066,0.242
				c-0.203,0.035-0.41,0.067-0.617,0.095h-0.003c-0.571,0.077-1.153,0.116-1.749,0.116h-0.077
				C64.603,97.216,58.686,91.271,58.686,83.969z M85.847,112.5c0.021,0,0.039-0.004,0.06-0.004
				c0.908,5.041,3.411,9.998,7.239,13.416c-4.168-1.101-8.659-4.519-12.262-9.465c-0.498-0.68-0.961-1.371-1.392-2.068
				C81.307,113.31,83.432,112.619,85.847,112.5z M87.617,110.646v-3.145l3.141,3.145H87.617z M87.617,82.766h70.507
				c-1.185,1.483-2.72,4.105-2.72,7.712c0,3.478,1.427,6.037,2.587,7.547H87.617V82.766z M62.437,63.924h19.207
				c1.693,0,3.123,1.132,3.572,2.682l0,0c-1.714,0.011-3.397,0.06-5.048,0.147H58.819C59.222,65.13,60.691,63.924,62.437,63.924z
				 M46.813,55.412c0.904,0.606,1.767,1.28,2.573,2.016c4.094,3.726,6.447,8.662,7.004,13.777
				c-3.758,1.336-7.256,2.966-10.489,4.883C49.298,69.754,49.677,62.076,46.813,55.412z M69.946,126.042
				c-0.102,0.736-0.154,1.458-0.154,2.156c0,0.554-0.018,1.101-0.056,1.644c-0.018,0.312-0.046,0.62-0.077,0.929
				c-0.032,0.312-0.07,0.62-0.116,0.929c-1.704,11.908-11.971,21.089-24.342,21.089c-13.559,0-24.588-11.032-24.588-24.591v-0.077
				c0-8.767,1.858-29.958,18.194-44.573c0.533-0.477,1.083-0.95,1.651-1.413c0.897-0.736,1.837-1.451,2.818-2.145
				c3.761-2.661,8.14-4.999,13.237-6.86c0.112-0.042,0.224-0.081,0.34-0.123c-0.007,1.809-0.014,3.884-0.021,5.921v0.004
				c0,0.743-0.004,1.476-0.004,2.191c-0.242,0.07-0.48,0.147-0.719,0.224h-0.004c-0.389,0.119-0.768,0.245-1.146,0.379
				c-5.314,1.816-10.001,4.336-14.043,7.561c-0.249,0.196-0.494,0.396-0.736,0.599c-0.238,0.2-0.477,0.403-0.712,0.61
				c-1.826,1.595-3.509,3.344-5.048,5.248c-9.181,11.361-10.555,25.072-10.555,32.23v0.063c0,11.849,9.64,21.485,21.489,21.485
				c10.601,0,19.431-7.712,21.17-17.822c0.056-0.308,0.102-0.617,0.144-0.929c0.039-0.309,0.07-0.617,0.095-0.929
				c0.053-0.596,0.077-1.199,0.077-1.805c0-0.522-0.014-1.209-0.035-2.002c-0.028-1.234-0.067-2.801-0.06-4.564
				c0.004-0.305,0.004-0.613,0.007-0.929c0.007-0.305,0.011-0.617,0.018-0.932c0.011-0.463,0.025-0.932,0.046-1.409
				c0.081-2.117,0.249-4.371,0.575-6.597c0.687-4.729,2.068-9.314,4.778-12.091c0.14-0.14,0.28-0.277,0.424-0.407
				c0.428-0.014,0.848-0.049,1.266-0.102c0.326-0.042,0.649-0.091,0.968-0.154h0.004c0.34-0.063,0.673-0.14,1.003-0.228
				c3.548-0.932,6.594-3.127,8.624-6.072c0.175-0.252,0.344-0.515,0.501-0.778c0.165-0.266,0.316-0.54,0.459-0.817
				c0.007,0.389,0.011,0.775,0.014,1.16c0.007,0.431,0.014,0.859,0.018,1.279c0.063,5.08,0.13,9.675,0.182,12.974
				c0.028,1.914,0.053,3.393,0.067,4.273c-0.028,0-0.056,0.004-0.084,0.007c-2.682,0.158-5.037,0.936-7.053,2.124
				c-0.27,0.158-0.529,0.323-0.785,0.494c-0.259,0.175-0.515,0.354-0.761,0.54c-2.103,1.599-3.758,3.663-4.953,5.886
				c-0.011,0.014-0.018,0.032-0.025,0.049c-0.154,0.284-0.298,0.571-0.435,0.862c-0.14,0.291-0.27,0.585-0.393,0.883
				c-0.077,0.182-0.151,0.365-0.221,0.55c-0.158,0.417-0.302,0.838-0.428,1.258C70.279,124.219,70.075,125.141,69.946,126.042z
				 M71.6,129.758c0.028-0.41,0.042-0.824,0.046-1.241c0.004-0.105,0.004-0.214,0.004-0.319c0-0.82,0.081-1.679,0.238-2.552
				c0.077-0.424,0.175-0.852,0.287-1.279c0.175-0.652,0.389-1.308,0.649-1.953c0.175-0.081,0.301-0.133,0.34-0.116
				c0.004,0,0.004,0,0.007,0.004c0.687,0.561,1.174,1.36,1.329,2.272c0.035,0.2,0.053,0.41,0.053,0.62v0.925
				c0,0.459-0.084,0.901-0.242,1.308c-0.112,0.308-0.266,0.596-0.459,0.859c-0.365,0.508-0.855,0.922-1.427,1.195
				C72.165,129.604,71.888,129.698,71.6,129.758z M119.679,114.102l-2.436-0.007c-0.48,0-0.883,0.365-0.929,0.841
				c-0.564,5.959-3.32,11.477-7.758,15.533c-4.463,4.08-10.254,6.328-16.304,6.328h-0.084c-6.654-0.025-12.679-2.745-17.04-7.123
				c0.196-0.235,0.372-0.491,0.526-0.757c4.259,4.333,10.152,6.927,16.518,6.948h0.081c11.915,0,21.85-8.922,23.115-20.749
				c0.028-0.263-0.056-0.526-0.231-0.722c-0.175-0.193-0.428-0.305-0.691-0.308l-2.201-0.007c-1.248-0.004-2.352-0.624-3.025-1.57
				h13.521C122.066,113.471,120.948,114.102,119.679,114.102z M126.894,107.357l-1.494-1.493c-0.361-0.365-0.95-0.365-1.315,0
				c-0.365,0.361-0.365,0.95,0,1.315l3.467,3.467h-1.97c-0.007-0.007-0.011-0.014-0.018-0.021l-4.764-4.761
				c-0.361-0.365-0.95-0.365-1.315,0c-0.365,0.361-0.365,0.95,0,1.315l3.467,3.467h-1.97c-0.007-0.007-0.011-0.014-0.018-0.021
				l-4.764-4.761c-0.361-0.365-0.95-0.365-1.315,0c-0.361,0.361-0.361,0.95,0,1.315l3.467,3.467h-1.97
				c-0.007-0.007-0.011-0.014-0.018-0.021l-4.764-4.761c-0.361-0.365-0.95-0.365-1.315,0c-0.361,0.361-0.361,0.95,0,1.315
				l3.467,3.467h-1.97c-0.007-0.007-0.011-0.014-0.018-0.021l-4.764-4.761c-0.361-0.365-0.95-0.365-1.315,0
				c-0.361,0.361-0.361,0.95,0,1.315l3.467,3.467h-1.97c-0.007-0.007-0.01-0.014-0.018-0.021l-4.761-4.761
				c-0.365-0.365-0.953-0.365-1.318,0c-0.361,0.361-0.361,0.95,0,1.315l3.467,3.467h-1.97c-0.007-0.007-0.011-0.014-0.018-0.021
				l-4.761-4.761c-0.365-0.365-0.953-0.365-1.318,0c-0.361,0.361-0.361,0.95,0,1.315l3.467,3.467h-1.97
				c-0.007-0.007-0.01-0.014-0.018-0.021l-4.761-4.761c-0.365-0.365-0.953-0.365-1.315,0c-0.365,0.361-0.365,0.95,0,1.315
				l3.467,3.467h-1.974c-0.007-0.007-0.011-0.014-0.014-0.021l-4.764-4.761c-0.27-0.27-0.659-0.337-0.992-0.21v-5.767h69.928
				c-1.059,1.209-2.142,2.997-2.142,5.244c0,2.422,1.258,4.308,2.387,5.514h-0.018c-0.007-0.007-0.01-0.014-0.018-0.021
				l-4.761-4.761c-0.365-0.365-0.953-0.365-1.318,0c-0.361,0.361-0.361,0.95,0,1.315l3.47,3.467h-1.974
				c-0.007-0.007-0.011-0.014-0.014-0.021l-4.764-4.761c-0.365-0.365-0.953-0.365-1.315,0c-0.365,0.361-0.365,0.95,0,1.315
				l3.467,3.467h-1.974c-0.007-0.007-0.01-0.014-0.018-0.021l-4.76-4.761c-0.365-0.365-0.954-0.365-1.315,0
				c-0.365,0.361-0.365,0.95,0,1.315l3.467,3.467h-1.974c-0.007-0.007-0.011-0.014-0.014-0.021l-4.764-4.761
				c-0.365-0.365-0.954-0.365-1.315,0c-0.365,0.361-0.365,0.95,0,1.315l3.467,3.467h-1.974c-0.004-0.007-0.01-0.014-0.014-0.021
				l-4.764-4.761c-0.365-0.365-0.953-0.365-1.315,0c-0.365,0.361-0.365,0.95,0,1.315l3.467,3.467h-1.974
				c-0.004-0.007-0.007-0.014-0.014-0.021l-4.764-4.761c-0.361-0.365-0.95-0.365-1.315,0c-0.365,0.361-0.365,0.95,0,1.315
				l3.467,3.467h-1.974c-0.004-0.007-0.007-0.014-0.014-0.021L126.894,107.357 M164.781,108.658
				c-0.021,0.018-1.711,1.259-4.466,1.77c-0.757-0.571-3.053-2.527-3.053-5.297c0-3.281,3.264-5.448,3.295-5.469
				c0.249-0.161,0.407-0.431,0.424-0.729c0.018-0.298-0.109-0.585-0.34-0.775c-0.035-0.025-3.379-2.811-3.379-7.681
				c0-4.834,3.348-7.656,3.379-7.681c0.249-0.203,0.372-0.522,0.329-0.841c-0.039-0.323-0.245-0.596-0.54-0.729
				c-0.011-0.004-0.042-0.018-0.091-0.046c-0.109-0.105-0.238-0.186-0.386-0.231c0,0,0,0-0.004,0
				c-0.887-0.599-2.689-2.24-2.689-5.689c0-3.94,2.352-5.518,3.004-5.879c2.331,0.291,4.515,1.942,4.529,1.953l16.62,13.153
				c-1.437,1.528-4.466,5.781,0.182,10.864L164.781,108.658z"/>
			<path fill="#231F20" d="M74.436,96.781c0.011-0.007,0.025-0.01,0.035-0.018c-0.011,0.004-0.021,0.007-0.035,0.014V96.781z"/>
			<path fill="#231F20" d="M77.521,89.16c0.48-0.904,0.75-1.935,0.75-3.029c0-1.153-0.301-2.237-0.831-3.176
				c-0.684-1.223-1.756-2.205-3.046-2.776c-0.803-0.358-1.697-0.557-2.633-0.557c-1.308,0-2.527,0.386-3.548,1.052
				c-1.781,1.164-2.962,3.176-2.962,5.458c0,3.59,2.92,6.51,6.51,6.51C74.258,92.641,76.431,91.229,77.521,89.16z M71.762,81.48
				c0.897,0,1.738,0.256,2.45,0.697l-6.405,6.404c-0.441-0.711-0.697-1.552-0.697-2.45C67.11,83.565,69.196,81.48,71.762,81.48z
				 M71.762,90.78c-0.996,0-1.917-0.315-2.675-0.848l6.475-6.474c0.533,0.757,0.848,1.679,0.848,2.674
				C76.41,88.694,74.324,90.78,71.762,90.78z"/>
			<path fill="#231F20" d="M45.256,138.676c3.59,0,6.51-2.92,6.51-6.51c0-0.445-0.046-0.876-0.13-1.297
				c-0.126-0.617-0.337-1.202-0.62-1.742c0-0.004-0.004-0.004-0.004-0.007c-0.004,0-0.004-0.004-0.004-0.004
				c-0.003,0-0.003-0.003-0.003-0.003c-0.179-0.333-0.382-0.649-0.617-0.943c-0.004-0.004-0.004-0.004-0.007-0.007
				c-0.382-0.494-0.841-0.932-1.357-1.301c-1.062-0.761-2.363-1.206-3.768-1.206c-3.59,0-6.51,2.92-6.51,6.51
				C38.746,135.756,41.667,138.676,45.256,138.676z M45.256,136.815c-0.995,0-1.917-0.315-2.674-0.848l6.474-6.473v0.002
				c0.533,0.757,0.848,1.676,0.848,2.671C49.905,134.729,47.819,136.815,45.256,136.815z M45.256,127.514
				c0.901,0,1.739,0.256,2.45,0.698c0,0,0,0,0,0l-6.405,6.404c-0.442-0.712-0.698-1.553-0.698-2.45
				C40.604,129.6,42.69,127.514,45.256,127.514z"/>
		</g>
	</g>
</g>
</svg>
