<?xml version="1.0" encoding="utf-8"?>
<!-- Generator: Adobe Illustrator 17.0.0, SVG Export Plug-In . SVG Version: 6.00 Build 0)  -->
<!DOCTYPE svg PUBLIC "-//W3C//DTD SVG 1.1//EN" "http://www.w3.org/Graphics/SVG/1.1/DTD/svg11.dtd">
<svg version="1.1" id="Layer_1" xmlns="http://www.w3.org/2000/svg" xmlns:xlink="http://www.w3.org/1999/xlink" x="0px" y="0px"
	 width="191.937px" height="223.559px" viewBox="0 0 191.937 223.559" enable-background="new 0 0 191.937 223.559"
	 xml:space="preserve">
<g>
	<g>
		<circle fill="none" stroke="#231F20" stroke-width="6" stroke-miterlimit="10" cx="95.969" cy="94.468" r="92.969"/>
		<g>
			<path fill="#231F20" d="M138.064,66.337c-11.374,0-20.593,9.22-20.593,20.593c0,11.374,9.22,20.594,20.593,20.594
				s20.593-9.22,20.593-20.594C158.658,75.557,149.438,66.337,138.064,66.337z M138.064,89.952c-1.668,0-3.021-1.353-3.021-3.021
				c0-1.668,1.353-3.021,3.021-3.021s3.021,1.353,3.021,3.021C141.086,88.599,139.733,89.952,138.064,89.952z"/>
			<path fill="#231F20" d="M53.628,66.337c-11.374,0-20.593,9.22-20.593,20.593c0,11.374,9.22,20.594,20.593,20.594
				s20.593-9.22,20.593-20.594C74.221,75.557,65.001,66.337,53.628,66.337z M52.365,89.952c-1.668,0-3.021-1.353-3.021-3.021
				c0-1.668,1.353-3.021,3.021-3.021c1.669,0,3.021,1.353,3.021,3.021C55.387,88.599,54.034,89.952,52.365,89.952z"/>
		</g>
		<path fill="none" stroke="#231F20" stroke-width="6" stroke-miterlimit="10" d="M53.628,71.826
			c32.795,0,18.596,51.549,42.218,74.112c25.004-20.458,11.936-74.112,42.218-74.112"/>
		<g>
			<path fill="none" stroke="#231F20" stroke-width="6" stroke-linecap="round" stroke-linejoin="round" stroke-miterlimit="20" d="
				M169.801,38.262c-7.817-7.817-18.429-12.651-30.357-12.651c-23.856,0-43.195,19.339-43.195,43.195
				c0-23.856-19.339-43.195-43.195-43.195c-11.304,0-21.969,4.342-29.667,11.45"/>
			<path fill="#D4522D" stroke="#231F20" stroke-width="6" stroke-miterlimit="10" d="M95.995,74.421"/>
		</g>
	</g>
	<g>
		<g>
			<path fill="#231F20" d="M162.881,207.429c-0.104-0.137-0.271-0.213-0.47-0.213h-0.193l-0.725,0.708l-0.691-0.708h-0.266
				c-0.235,0-0.478,0.188-0.545,0.424l-1.97,7.704l-3.1-7.981c-0.073-0.223-0.263-0.351-0.521-0.351h-0.367
				c-0.256,0-0.446,0.127-0.518,0.342l-3.085,7.992l-2.009-7.711c-0.066-0.231-0.309-0.419-0.544-0.419h-0.229l-0.725,0.708
				l-0.691-0.708H146c-0.2,0-0.366,0.076-0.47,0.213c-0.103,0.137-0.13,0.319-0.075,0.511l3.852,13.694
				c0.06,0.242,0.295,0.425,0.545,0.425h0.326c0.314,0,0.442-0.187,0.518-0.341l3.489-8.928l3.525,8.919
				c0.071,0.213,0.275,0.351,0.521,0.351h0.326c0.251,0,0.485-0.183,0.544-0.42l3.853-13.699
				C163.011,207.748,162.985,207.566,162.881,207.429z"/>
			<path fill="#231F20" d="M169.137,207.216h-0.238l-0.725,0.708l-0.691-0.708h-0.242c-0.305,0-0.572,0.267-0.572,0.572v13.496
				c0,0.304,0.267,0.572,0.572,0.572h0.292l0.675-0.659l0.643,0.659h0.285c0.305,0,0.572-0.267,0.572-0.572v-13.496
				C169.708,207.484,169.441,207.216,169.137,207.216z"/>
			<path fill="#231F20" d="M183.23,208.597l0.728-0.71v-0.099c0-0.315-0.257-0.572-0.572-0.572h-8.909
				c-0.315,0-0.572,0.256-0.572,0.572v0.132l0.695,0.712l-0.695,0.678v0.149c0,0.315,0.257,0.572,0.572,0.572h2.935v11.253
				c0,0.304,0.267,0.572,0.572,0.572h0.26l0.748-0.73l0.713,0.73h0.174c0.305,0,0.572-0.267,0.572-0.572v-11.253h2.935
				c0.315,0,0.572-0.256,0.572-0.572v-0.117L183.23,208.597z"/>
		</g>
		<g>
			<path fill="#231F20" d="M20.526,219.111l-1.002-0.009l0.01-1.015l-0.169-0.175c-0.192-0.191-0.549-0.194-0.756-0.013
				c-0.919,0.744-1.93,1.121-3.003,1.121c-2.457,0-4.382-1.988-4.382-4.525c0-2.56,1.916-4.566,4.362-4.566
				c1.083,0,2.183,0.422,3.01,1.149c0.234,0.233,0.578,0.222,0.772-0.002l0.126-0.131l0.013-1.127l1.065,0.013l0.036-0.038
				c0.116-0.117,0.178-0.266,0.174-0.423c-0.005-0.157-0.076-0.304-0.201-0.416c-1.498-1.344-3.058-1.943-5.056-1.943
				c-4.16,0-7.544,3.384-7.544,7.544c0,4.137,3.384,7.503,7.544,7.503c1.957,0,3.714-0.702,5.084-2.031
				c0.118-0.118,0.186-0.288,0.18-0.455c-0.004-0.144-0.064-0.274-0.157-0.354L20.526,219.111z"/>
			<path fill="#231F20" d="M35.541,207.216h-0.268l-0.704,0.688l-0.671-0.688h-0.293c-0.315,0-0.571,0.256-0.571,0.572v8.358
				c0,1.677-1.174,2.894-2.793,2.894c-1.606,0-2.772-1.226-2.772-2.915v-8.338c0-0.315-0.257-0.572-0.572-0.572H26.68l-0.704,0.688
				l-0.671-0.688h-0.343c-0.304,0-0.571,0.267-0.571,0.572v8.481c0,3.247,2.57,5.791,5.851,5.791c3.293,0,5.872-2.544,5.872-5.791
				v-8.481C36.113,207.484,35.846,207.216,35.541,207.216z"/>
			<path fill="#231F20" d="M60.519,208.618l0.728-0.711v-0.12c0-0.315-0.256-0.572-0.571-0.572h-8.909
				c-0.315,0-0.571,0.256-0.571,0.572v0.121l0.727,0.744l-0.727,0.709v0.097c0,0.315,0.256,0.572,0.571,0.572h2.935v11.253
				c0,0.304,0.267,0.572,0.571,0.572h0.2l0.755-0.737l0.72,0.737h0.221c0.304,0,0.571-0.267,0.571-0.572v-11.253h2.935
				c0.315,0,0.571-0.256,0.571-0.572v-0.096L60.519,208.618z"/>
			<path fill="#231F20" d="M85.85,207.467c-0.102-0.159-0.28-0.25-0.488-0.25h-0.238l-0.725,0.708l-0.691-0.708h-0.426
				c-0.264,0-0.45,0.171-0.515,0.333l-3.817,8.55l-3.814-8.542c-0.067-0.17-0.253-0.341-0.518-0.341h-0.339l-0.725,0.708
				l-0.691-0.708h-0.326c-0.208,0-0.386,0.091-0.488,0.25c-0.101,0.158-0.111,0.355-0.025,0.541l6.302,13.726
				c0.135,0.269,0.353,0.326,0.512,0.326h0.203c0.225,0,0.407-0.116,0.514-0.331l6.32-13.72
				C85.96,207.822,85.951,207.625,85.85,207.467z"/>
			<path fill="#231F20" d="M97.102,221.855h0.249l0.702-0.685l0.669,0.685h0.154c0.208,0,0.386-0.091,0.488-0.25
				c0.101-0.158,0.111-0.355,0.025-0.541l-6.273-13.706l-0.58,0.566l-0.62-0.635c-0.012,0.02-0.027,0.032-0.038,0.055l-6.34,13.72
				c-0.085,0.185-0.076,0.383,0.025,0.541c0.102,0.159,0.28,0.25,0.488,0.25h0.2l0.702-0.685l0.669,0.685h0.203
				c0.346,0,0.631-0.196,0.759-0.516l0.95-2.094h5.858l0.953,2.1C96.499,221.651,96.685,221.855,97.102,221.855z M90.699,216.615
				l1.746-3.92l1.782,3.92H90.699z"/>
			<path fill="#231F20" d="M109.356,208.561l0.753-0.735v-0.039c0-0.315-0.257-0.572-0.572-0.572h-8.909
				c-0.315,0-0.572,0.256-0.572,0.572v0.093l0.699,0.715l-0.699,0.682v0.182c0,0.315,0.257,0.572,0.572,0.572h2.935v11.253
				c0,0.304,0.267,0.572,0.572,0.572h0.236l0.702-0.685l0.669,0.685h0.288c0.305,0,0.572-0.267,0.572-0.572v-11.253h2.935
				c0.315,0,0.572-0.256,0.572-0.572v-0.127L109.356,208.561z"/>
			<path fill="#231F20" d="M132.897,207.216h-4.832c-0.298,0-0.551,0.262-0.551,0.572v0.313l0.73,0.748l-0.73,0.713v10.287
				l0.73,0.748l-0.726,0.709c0.012,0.3,0.255,0.55,0.546,0.55h4.832c4.047,0,7.339-3.293,7.339-7.34
				C140.236,210.491,136.944,207.216,132.897,207.216z M132.652,219h-2.14v-8.948h2.14c2.551,0,4.403,1.877,4.403,4.464
				C137.055,217.114,135.203,219,132.652,219z"/>
			<path fill="#231F20" d="M122.614,220.413l0.724-0.707v-0.093c0-0.315-0.257-0.572-0.572-0.572h-5.85v-3.199h4.852
				c0.315,0,0.571-0.256,0.571-0.572v-0.081l-0.735-0.753l0.735-0.718v-0.14c0-0.304-0.267-0.572-0.571-0.572h-4.852v-2.975h5.85
				c0.315,0,0.572-0.256,0.572-0.572v-0.135l-0.745-0.763l0.745-0.728v-0.046c0-0.315-0.257-0.572-0.572-0.572h-8.298
				c-0.315,0-0.572,0.256-0.572,0.572v13.496c0,0.315,0.257,0.572,0.572,0.572h8.298c0.315,0,0.572-0.256,0.572-0.572v-0.129
				L122.614,220.413z"/>
			<path fill="#231F20" d="M67.91,207.216H67.71l-0.725,0.708l-0.691-0.708h-0.279c-0.305,0-0.572,0.267-0.572,0.572v13.496
				c0,0.304,0.267,0.572,0.572,0.572h0.229l0.776-0.757l0.739,0.757h0.152c0.305,0,0.572-0.267,0.572-0.572v-13.496
				C68.482,207.484,68.215,207.216,67.91,207.216z"/>
			<path fill="#231F20" d="M49.168,220.449l0.725-0.708v-0.129c0-0.315-0.256-0.572-0.571-0.572h-5.014v-11.253
				c0-0.304-0.267-0.572-0.572-0.572h-0.248l-0.704,0.688l-0.671-0.688H41.86c-0.315,0-0.572,0.256-0.572,0.572v13.496
				c0,0.315,0.257,0.572,0.572,0.572h7.461c0.315,0,0.571-0.256,0.571-0.572v-0.092L49.168,220.449z"/>
		</g>
	</g>
</g>
</svg>
