<?xml version="1.0" encoding="utf-8"?>
<!-- Generator: Adobe Illustrator 17.0.0, SVG Export Plug-In . SVG Version: 6.00 Build 0)  -->
<!DOCTYPE svg PUBLIC "-//W3C//DTD SVG 1.1//EN" "http://www.w3.org/Graphics/SVG/1.1/DTD/svg11.dtd">
<svg version="1.1" id="Layer_1" xmlns="http://www.w3.org/2000/svg" xmlns:xlink="http://www.w3.org/1999/xlink" x="0px" y="0px"
	 width="173.008px" height="173.008px" viewBox="0 0 173.008 173.008" enable-background="new 0 0 173.008 173.008"
	 xml:space="preserve">
<g>
	<g>
		<g>
			<circle fill="#FFFFFF" cx="86.504" cy="86.504" r="67.546"/>
		</g>
		<g>
			<g>
				<g>
					<g>
						<polygon fill="#FFFFFF" points="172.634,95.356 170.752,96.064 170.217,98.011 169.023,96.416 167.04,96.509 168.176,94.903 
							167.386,93.101 169.31,93.592 170.8,92.27 170.933,94.284 						"/>
					</g>
					<g>
						<path fill="#FFFFFF" d="M170.619,107.001l-1.93,0.452c0,0-0.189,0.468-0.399,0.929c-0.205,0.461-0.41,0.922-0.41,0.922
							l-0.946-1.738l-1.982-0.18c0,0,0.352-0.349,0.67-0.713c0.321-0.365,0.642-0.73,0.642-0.73l-0.512-1.887l1.834,0.748
							l1.676-1.102l-0.17,2.008L170.619,107.001z"/>
					</g>
					<g>
						<path fill="#FFFFFF" d="M167.043,118.265l-1.983,0.179c0,0-0.249,0.438-0.499,0.875c-0.268,0.428-0.536,0.856-0.536,0.856
							s-0.17-0.464-0.34-0.928c-0.186-0.464-0.371-0.929-0.371-0.929l-1.926-0.445l1.487-1.255l-0.23-1.932l1.711,0.991
							c0,0,0.454-0.212,0.907-0.424c0.441-0.223,0.882-0.446,0.882-0.446s-0.083,0.499-0.195,0.991
							c-0.117,0.49-0.233,0.98-0.233,0.98L167.043,118.265z"/>
					</g>
					<g>
						<path fill="#FFFFFF" d="M161.964,128.934l-1.996-0.098l-1.246,1.583c0,0-0.115-0.489-0.23-0.978
							c-0.12-0.485-0.241-0.971-0.241-0.971l-1.85-0.705l1.658-1.032c0,0,0.014-0.487,0.027-0.973
							c0.021-0.48,0.003-0.976,0.003-0.976l1.571,1.222l1.876-0.625c0,0-0.164,0.477-0.329,0.955
							c-0.157,0.482-0.348,0.948-0.348,0.948L161.964,128.934z"/>
					</g>
					<g>
						<path fill="#FFFFFF" d="M155.483,138.813l-1.97-0.372l-1.458,1.393l-0.197-1.991l-1.739-0.952l1.794-0.789
							c0,0,0.094-0.473,0.155-0.964c0.063-0.487,0.126-0.974,0.126-0.974l1.388,1.423l1.953-0.357l-0.927,1.795L155.483,138.813z"/>
					</g>
					<g>
						<polygon fill="#FFFFFF" points="147.724,147.724 145.818,147.083 144.175,148.255 144.257,146.264 142.661,145.084 
							144.555,144.555 145.084,142.661 146.264,144.257 148.255,144.175 147.083,145.818 						"/>
					</g>
					<g>
						<path fill="#FFFFFF" d="M138.813,155.483l-1.787-0.874l-1.795,0.927l0.357-1.953l-1.423-1.388c0,0,0.487-0.063,0.974-0.126
							c0.491-0.061,0.964-0.155,0.964-0.155l0.789-1.794l0.952,1.739l1.991,0.197l-1.393,1.458L138.813,155.483z"/>
					</g>
					<g>
						<path fill="#FFFFFF" d="M128.934,161.964l-1.649-1.104c0,0-0.466,0.191-0.948,0.348c-0.477,0.164-0.955,0.329-0.955,0.329
							l0.625-1.876l-1.222-1.571c0,0,0.495,0.018,0.976-0.003c0.487-0.014,0.973-0.027,0.973-0.027l1.032-1.658l0.705,1.85
							c0,0,0.485,0.12,0.971,0.241c0.489,0.115,0.978,0.23,0.978,0.23l-1.583,1.246L128.934,161.964z"/>
					</g>
					<g>
						<path fill="#FFFFFF" d="M118.265,167.043l-1.486-1.327c0,0-0.49,0.117-0.98,0.233c-0.491,0.112-0.991,0.195-0.991,0.195
							s0.223-0.441,0.446-0.882c0.212-0.454,0.424-0.907,0.424-0.907l-0.991-1.711l1.932,0.23l1.255-1.487l0.445,1.926
							c0,0,0.464,0.186,0.929,0.371c0.464,0.17,0.928,0.34,0.928,0.34s-0.428,0.268-0.856,0.536
							c-0.438,0.249-0.875,0.499-0.875,0.499L118.265,167.043z"/>
					</g>
					<g>
						<path fill="#FFFFFF" d="M107.001,170.619l-1.292-1.528l-2.008,0.17l1.102-1.676l-0.748-1.834l1.887,0.512
							c0,0,0.365-0.321,0.73-0.642c0.364-0.318,0.713-0.67,0.713-0.67l0.18,1.982l1.738,0.946c0,0-0.461,0.205-0.922,0.41
							c-0.461,0.21-0.929,0.399-0.929,0.399L107.001,170.619z"/>
					</g>
					<g>
						<polygon fill="#FFFFFF" points="95.356,172.634 94.284,170.933 92.27,170.8 93.592,169.31 93.101,167.386 94.903,168.176 
							96.509,167.04 96.416,169.023 98.011,170.217 96.064,170.752 						"/>
					</g>
					<g>
						<path fill="#FFFFFF" d="M83.55,173.008l-0.835-1.801c0,0-0.498-0.069-0.991-0.189c-0.493-0.109-0.986-0.218-0.986-0.218
							l1.509-1.275l-0.228-1.977c0,0,0.414,0.265,0.836,0.498c0.423,0.241,0.846,0.483,0.846,0.483l1.745-0.879l-0.36,1.947
							l1.419,1.421l-2,0.235L83.55,173.008z"/>
					</g>
					<g>
						<path fill="#FFFFFF" d="M71.797,171.813l-0.581-1.911c0,0-0.479-0.158-0.958-0.316c-0.478-0.156-0.953-0.324-0.953-0.324
							s0.423-0.264,0.843-0.544c0.417-0.277,0.833-0.555,0.833-0.555l0.041-1.979l1.53,1.211c0,0,0.463-0.152,0.926-0.303
							c0.46-0.145,0.918-0.318,0.918-0.318l-0.621,1.889l1.221,1.554c0,0-0.505,0.008-1.01,0.015
							c-0.507,0.019-1.009-0.016-1.009-0.016L71.797,171.813z"/>
					</g>
					<g>
						<path fill="#FFFFFF" d="M60.31,169.037L60,167.054l-1.8-0.91l1.808-0.85l0.313-1.959l1.343,1.43c0,0,0.477-0.071,0.961-0.184
							c0.479-0.104,0.959-0.208,0.959-0.208l-0.874,1.785l0.992,1.721l-2.002-0.272c0,0-0.347,0.363-0.695,0.726
							C60.658,168.686,60.31,169.037,60.31,169.037z"/>
					</g>
					<g>
						<path fill="#FFFFFF" d="M49.315,164.7c0,0-0.014-0.496-0.028-0.993c-0.006-0.503-0.011-1.005-0.011-1.005l-1.65-1.165
							l1.901-0.582l0.58-1.9c0,0,0.28,0.403,0.559,0.805c0.278,0.411,0.576,0.794,0.576,0.794l1.958-0.128l-1.109,1.645l0.741,1.855
							l-1.937-0.563L49.315,164.7z"/>
					</g>
					<g>
						<path fill="#FFFFFF" d="M39.025,158.89l0.224-1.97c0,0-0.374-0.34-0.739-0.69c-0.366-0.348-0.732-0.695-0.732-0.695
							l1.956-0.308l0.835-1.806c0,0,0.213,0.446,0.445,0.873c0.236,0.425,0.472,0.85,0.472,0.85l1.949,0.153l-1.321,1.476
							l0.474,1.949l-1.833-0.836L39.025,158.89z"/>
					</g>
					<g>
						<path fill="#FFFFFF" d="M29.619,151.742l0.494-1.926c0,0-0.336-0.375-0.654-0.767c-0.313-0.397-0.626-0.793-0.626-0.793
							s0.495-0.006,0.991-0.012c0.489-0.003,0.991-0.03,0.991-0.03l1.065-1.668l0.686,1.819l1.902,0.426l-1.508,1.281
							c0,0,0.047,0.499,0.095,0.998c0.06,0.493,0.12,0.985,0.12,0.985s-0.445-0.243-0.862-0.523
							c-0.424-0.273-0.848-0.545-0.848-0.545L29.619,151.742z"/>
					</g>
					<g>
						<path fill="#FFFFFF" d="M21.266,143.389l0.755-1.846c0,0-0.273-0.424-0.545-0.848c-0.28-0.417-0.523-0.862-0.523-0.862
							s0.493,0.06,0.985,0.12c0.499,0.047,0.998,0.094,0.998,0.094l1.281-1.508l0.427,1.902l1.819,0.686l-1.668,1.065
							c0,0-0.026,0.501-0.03,0.991c-0.006,0.495-0.012,0.991-0.012,0.991s-0.397-0.313-0.793-0.626
							c-0.392-0.318-0.767-0.654-0.767-0.654L21.266,143.389z"/>
					</g>
					<g>
						<path fill="#FFFFFF" d="M14.118,133.983l1.004-1.73l-0.836-1.833l1.949,0.474l1.476-1.321l0.153,1.949
							c0,0,0.425,0.236,0.85,0.472c0.427,0.232,0.873,0.445,0.873,0.445l-1.806,0.835l-0.308,1.956c0,0-0.348-0.366-0.695-0.732
							c-0.35-0.365-0.69-0.739-0.69-0.739L14.118,133.983z"/>
					</g>
					<g>
						<path fill="#FFFFFF" d="M8.308,123.693l1.238-1.581l-0.563-1.937l1.855,0.741l1.645-1.109l-0.128,1.958
							c0,0,0.383,0.298,0.794,0.576c0.403,0.28,0.805,0.559,0.805,0.559l-1.9,0.58l-0.582,1.901l-1.165-1.65
							c0,0-0.502-0.006-1.005-0.011C8.804,123.707,8.308,123.693,8.308,123.693z"/>
					</g>
					<g>
						<path fill="#FFFFFF" d="M3.971,112.698c0,0,0.352-0.349,0.703-0.697c0.363-0.347,0.726-0.695,0.726-0.695l-0.272-2.002
							l1.721,0.992l1.785-0.874c0,0-0.104,0.479-0.208,0.959c-0.112,0.484-0.184,0.961-0.184,0.961l1.43,1.343L7.714,113
							l-0.85,1.808l-0.91-1.8L3.971,112.698z"/>
					</g>
					<g>
						<path fill="#FFFFFF" d="M1.195,101.211l1.597-1.181c0,0-0.035-0.501-0.016-1.009c0.008-0.505,0.015-1.01,0.015-1.01
							l1.554,1.221l1.889-0.621c0,0-0.173,0.459-0.318,0.918c-0.152,0.463-0.303,0.926-0.303,0.926l1.211,1.53l-1.979,0.041
							c0,0-0.277,0.417-0.555,0.833c-0.28,0.42-0.544,0.843-0.544,0.843s-0.168-0.474-0.324-0.953
							c-0.158-0.479-0.316-0.958-0.316-0.958L1.195,101.211z"/>
					</g>
					<g>
						<path fill="#FFFFFF" d="M0,89.458l1.756-0.954l0.235-2l1.421,1.419l1.947-0.36l-0.879,1.745c0,0,0.241,0.423,0.483,0.846
							c0.234,0.421,0.498,0.836,0.498,0.836l-1.977-0.228L2.208,92.27c0,0-0.109-0.493-0.218-0.986
							c-0.12-0.493-0.189-0.991-0.189-0.991L0,89.458z"/>
					</g>
					<g>
						<polygon fill="#FFFFFF" points="0.374,77.652 2.256,76.944 2.791,74.997 3.985,76.592 5.968,76.499 4.832,78.105 
							5.622,79.907 3.698,79.416 2.208,80.738 2.075,78.724 						"/>
					</g>
					<g>
						<path fill="#FFFFFF" d="M2.389,66.007l1.93-0.452c0,0,0.189-0.468,0.399-0.929c0.205-0.461,0.41-0.922,0.41-0.922l0.946,1.738
							l1.982,0.18c0,0-0.352,0.349-0.67,0.713c-0.321,0.365-0.642,0.73-0.642,0.73l0.512,1.887l-1.834-0.748l-1.676,1.102
							l0.17-2.008L2.389,66.007z"/>
					</g>
					<g>
						<path fill="#FFFFFF" d="M5.965,54.743l1.983-0.179c0,0,0.249-0.438,0.499-0.875c0.268-0.428,0.536-0.856,0.536-0.856
							s0.17,0.464,0.34,0.928c0.186,0.464,0.371,0.929,0.371,0.929l1.926,0.445l-1.487,1.255l0.23,1.932L8.653,57.33
							c0,0-0.454,0.212-0.907,0.424C7.305,57.977,6.864,58.2,6.864,58.2s0.083-0.499,0.195-0.991c0.116-0.49,0.233-0.98,0.233-0.98
							L5.965,54.743z"/>
					</g>
					<g>
						<path fill="#FFFFFF" d="M11.044,44.074l1.996,0.098l1.246-1.583c0,0,0.115,0.489,0.23,0.978
							c0.12,0.485,0.241,0.971,0.241,0.971l1.85,0.705l-1.658,1.032c0,0-0.014,0.487-0.027,0.973
							c-0.021,0.48-0.003,0.976-0.003,0.976l-1.571-1.222l-1.876,0.625c0,0,0.164-0.477,0.329-0.955
							c0.157-0.482,0.348-0.948,0.348-0.948L11.044,44.074z"/>
					</g>
					<g>
						<path fill="#FFFFFF" d="M17.525,34.195l1.97,0.372l1.458-1.393l0.197,1.991l1.739,0.952l-1.794,0.789
							c0,0-0.094,0.473-0.155,0.964c-0.063,0.487-0.126,0.974-0.126,0.974l-1.388-1.423l-1.953,0.357l0.927-1.795L17.525,34.195z"/>
					</g>
					<g>
						<polygon fill="#FFFFFF" points="25.284,25.284 27.19,25.925 28.833,24.753 28.751,26.744 30.347,27.924 28.453,28.453 
							27.924,30.347 26.744,28.751 24.753,28.833 25.925,27.19 						"/>
					</g>
					<g>
						<path fill="#FFFFFF" d="M34.195,17.525l1.787,0.874l1.795-0.927l-0.357,1.953l1.423,1.388c0,0-0.487,0.063-0.974,0.126
							c-0.491,0.061-0.964,0.155-0.964,0.155l-0.789,1.794l-0.952-1.739l-1.991-0.197l1.393-1.458L34.195,17.525z"/>
					</g>
					<g>
						<path fill="#FFFFFF" d="M44.074,11.044l1.649,1.104c0,0,0.466-0.191,0.948-0.348c0.477-0.164,0.955-0.329,0.955-0.329
							l-0.625,1.876l1.222,1.571c0,0-0.495-0.018-0.976,0.003c-0.487,0.014-0.973,0.027-0.973,0.027l-1.032,1.658l-0.705-1.85
							c0,0-0.485-0.12-0.971-0.241c-0.489-0.115-0.978-0.23-0.978-0.23l1.583-1.246L44.074,11.044z"/>
					</g>
					<g>
						<path fill="#FFFFFF" d="M54.743,5.965l1.486,1.327c0,0,0.49-0.117,0.98-0.233C57.7,6.947,58.2,6.864,58.2,6.864
							s-0.223,0.441-0.446,0.882c-0.212,0.454-0.424,0.907-0.424,0.907l0.991,1.711l-1.932-0.23l-1.255,1.487l-0.445-1.926
							c0,0-0.464-0.186-0.929-0.371c-0.464-0.17-0.928-0.34-0.928-0.34s0.428-0.268,0.856-0.536
							c0.438-0.249,0.875-0.499,0.875-0.499L54.743,5.965z"/>
					</g>
					<g>
						<path fill="#FFFFFF" d="M66.007,2.389l1.292,1.528l2.008-0.17l-1.102,1.676l0.748,1.834l-1.887-0.512
							c0,0-0.365,0.321-0.73,0.642c-0.364,0.318-0.713,0.67-0.713,0.67l-0.18-1.982l-1.738-0.946c0,0,0.461-0.205,0.922-0.41
							c0.461-0.21,0.929-0.399,0.929-0.399L66.007,2.389z"/>
					</g>
					<g>
						<polygon fill="#FFFFFF" points="77.652,0.374 78.724,2.075 80.738,2.208 79.416,3.698 79.907,5.622 78.105,4.832 
							76.499,5.968 76.592,3.985 74.997,2.791 76.944,2.256 						"/>
					</g>
					<g>
						<path fill="#FFFFFF" d="M89.458,0l0.835,1.801c0,0,0.498,0.069,0.991,0.189c0.493,0.109,0.986,0.218,0.986,0.218l-1.509,1.275
							l0.228,1.977c0,0-0.414-0.265-0.836-0.498c-0.423-0.241-0.846-0.483-0.846-0.483l-1.745,0.879l0.36-1.947l-1.419-1.421
							l2-0.235L89.458,0z"/>
					</g>
					<g>
						<path fill="#FFFFFF" d="M101.211,1.195l0.581,1.911c0,0,0.479,0.158,0.958,0.316c0.478,0.156,0.953,0.324,0.953,0.324
							s-0.423,0.264-0.843,0.544c-0.417,0.277-0.833,0.555-0.833,0.555l-0.041,1.979l-1.53-1.211c0,0-0.463,0.152-0.926,0.303
							c-0.46,0.145-0.918,0.318-0.918,0.318l0.621-1.889l-1.221-1.554c0,0,0.505-0.008,1.01-0.015
							c0.507-0.019,1.009,0.016,1.009,0.016L101.211,1.195z"/>
					</g>
					<g>
						<path fill="#FFFFFF" d="M112.698,3.971l0.31,1.983l1.8,0.91L113,7.714l-0.313,1.959l-1.343-1.43c0,0-0.477,0.071-0.961,0.184
							c-0.479,0.104-0.959,0.208-0.959,0.208l0.874-1.785l-0.992-1.721l2.002,0.272c0,0,0.347-0.363,0.695-0.726
							C112.35,4.322,112.698,3.971,112.698,3.971z"/>
					</g>
					<g>
						<path fill="#FFFFFF" d="M123.693,8.308c0,0,0.014,0.496,0.028,0.993c0.006,0.502,0.011,1.005,0.011,1.005l1.65,1.165
							l-1.901,0.582l-0.58,1.9c0,0-0.28-0.403-0.559-0.805c-0.278-0.411-0.576-0.794-0.576-0.794l-1.958,0.128l1.109-1.645
							l-0.741-1.855l1.937,0.563L123.693,8.308z"/>
					</g>
					<g>
						<path fill="#FFFFFF" d="M133.983,14.118l-0.224,1.97c0,0,0.374,0.34,0.739,0.69c0.366,0.348,0.732,0.695,0.732,0.695
							l-1.956,0.308l-0.835,1.806c0,0-0.213-0.446-0.445-0.873c-0.236-0.425-0.472-0.85-0.472-0.85l-1.949-0.153l1.321-1.476
							l-0.474-1.949l1.833,0.836L133.983,14.118z"/>
					</g>
					<g>
						<path fill="#FFFFFF" d="M143.389,21.266l-0.494,1.927c0,0,0.336,0.375,0.654,0.767c0.313,0.397,0.626,0.793,0.626,0.793
							s-0.495,0.006-0.991,0.012c-0.489,0.003-0.991,0.03-0.991,0.03l-1.065,1.668l-0.686-1.819l-1.902-0.427l1.508-1.281
							c0,0-0.047-0.499-0.094-0.998c-0.06-0.493-0.12-0.985-0.12-0.985s0.445,0.243,0.862,0.523
							c0.424,0.273,0.848,0.545,0.848,0.545L143.389,21.266z"/>
					</g>
					<g>
						<path fill="#FFFFFF" d="M151.742,29.619l-0.755,1.846c0,0,0.273,0.424,0.545,0.848c0.28,0.417,0.523,0.862,0.523,0.862
							s-0.493-0.06-0.985-0.12c-0.499-0.047-0.998-0.095-0.998-0.095l-1.281,1.508l-0.426-1.902l-1.819-0.686l1.668-1.065
							c0,0,0.026-0.501,0.03-0.991c0.006-0.495,0.012-0.991,0.012-0.991s0.397,0.313,0.793,0.626
							c0.392,0.318,0.767,0.654,0.767,0.654L151.742,29.619z"/>
					</g>
					<g>
						<path fill="#FFFFFF" d="M158.89,39.025l-1.004,1.73l0.836,1.833l-1.949-0.474l-1.476,1.321l-0.153-1.949
							c0,0-0.425-0.236-0.85-0.472c-0.427-0.232-0.873-0.445-0.873-0.445l1.806-0.835l0.308-1.956c0,0,0.348,0.366,0.695,0.732
							c0.35,0.365,0.69,0.739,0.69,0.739L158.89,39.025z"/>
					</g>
					<g>
						<path fill="#FFFFFF" d="M164.7,49.315l-1.238,1.581l0.563,1.937l-1.855-0.741l-1.645,1.109l0.128-1.958
							c0,0-0.383-0.298-0.794-0.576c-0.403-0.28-0.805-0.559-0.805-0.559l1.9-0.58l0.582-1.901l1.165,1.65
							c0,0,0.502,0.006,1.005,0.011C164.204,49.301,164.7,49.315,164.7,49.315z"/>
					</g>
					<g>
						<path fill="#FFFFFF" d="M169.037,60.31c0,0-0.352,0.349-0.703,0.697c-0.363,0.347-0.726,0.695-0.726,0.695l0.272,2.002
							l-1.721-0.992l-1.785,0.874c0,0,0.104-0.479,0.208-0.959c0.112-0.484,0.184-0.961,0.184-0.961l-1.43-1.343l1.959-0.313
							l0.85-1.808l0.91,1.8L169.037,60.31z"/>
					</g>
					<g>
						<path fill="#FFFFFF" d="M171.813,71.797l-1.597,1.181c0,0,0.035,0.501,0.016,1.009c-0.008,0.505-0.015,1.01-0.015,1.01
							l-1.554-1.221l-1.889,0.621c0,0,0.173-0.459,0.318-0.918c0.152-0.463,0.303-0.926,0.303-0.926l-1.211-1.53l1.979-0.041
							c0,0,0.277-0.417,0.555-0.833c0.28-0.42,0.544-0.843,0.544-0.843s0.168,0.474,0.324,0.953
							c0.158,0.479,0.316,0.958,0.316,0.958L171.813,71.797z"/>
					</g>
					<g>
						<path fill="#FFFFFF" d="M173.008,83.55l-1.756,0.954l-0.235,2l-1.421-1.419l-1.947,0.36l0.879-1.745
							c0,0-0.241-0.423-0.483-0.846c-0.234-0.421-0.498-0.836-0.498-0.836l1.977,0.228l1.275-1.509c0,0,0.109,0.493,0.218,0.986
							c0.12,0.493,0.189,0.991,0.189,0.991L173.008,83.55z"/>
					</g>
				</g>
			</g>
		</g>
		<g>
			<g>
				<path fill="#3B98BF" d="M119.004,117.375c0,8.079-6.55,14.629-14.629,14.629H64.633c-8.079,0-14.629-6.55-14.629-14.629V95.633
					c0-8.079,6.55-14.629,14.629-14.629h39.742c8.079,0,14.629,6.55,14.629,14.629V117.375z"/>
				<path fill="none" stroke="#FFFFFF" stroke-width="3" stroke-miterlimit="10" d="M119.504,116.875
					c0,8.079-6.55,14.629-14.629,14.629H65.133c-8.079,0-14.629-6.55-14.629-14.629V95.133c0-8.079,6.55-14.629,14.629-14.629
					h39.742c8.079,0,14.629,6.55,14.629,14.629V116.875z"/>
			</g>
			<g>
				<path fill="#3B98BF" d="M66.004,100.69c0,4.04-3.275,7.314-7.314,7.314h-1.371c-4.04,0-7.314-3.275-7.314-7.314V78.318
					c0-4.04,3.275-7.314,7.314-7.314h1.371c4.04,0,7.314,3.275,7.314,7.314V100.69z"/>
				<path fill="none" stroke="#FFFFFF" stroke-width="3" stroke-miterlimit="10" d="M66.504,100.19c0,4.04-3.275,7.314-7.314,7.314
					h-1.371c-4.04,0-7.314-3.275-7.314-7.314V77.818c0-4.04,3.275-7.314,7.314-7.314h1.371c4.04,0,7.314,3.275,7.314,7.314V100.19z"
					/>
			</g>
			<g>
				<path fill="#3B98BF" d="M83.004,101.384c0,4.209-3.412,7.62-7.62,7.62h-0.759c-4.209,0-7.62-3.412-7.62-7.62v-25.76
					c0-4.209,3.412-7.62,7.62-7.62h0.759c4.209,0,7.62,3.412,7.62,7.62V101.384z"/>
				<path fill="none" stroke="#FFFFFF" stroke-width="3" stroke-miterlimit="10" d="M82.504,100.884c0,4.209-3.412,7.62-7.62,7.62
					h-0.759c-4.209,0-7.62-3.412-7.62-7.62v-25.76c0-4.209,3.412-7.62,7.62-7.62h0.759c4.209,0,7.62,3.412,7.62,7.62V100.884z"/>
			</g>
			<g>
				<path fill="#3B98BF" d="M116.004,86.384c0,4.209-3.412,7.62-7.62,7.62h-0.759c-4.209,0-7.62-3.412-7.62-7.62V75.624
					c0-4.209,3.412-7.62,7.62-7.62h0.759c4.209,0,7.62,3.412,7.62,7.62V86.384z"/>
				<path fill="none" stroke="#FFFFFF" stroke-width="3" stroke-miterlimit="10" d="M115.504,85.884c0,4.209-3.412,7.62-7.62,7.62
					h-0.759c-4.209,0-7.62-3.412-7.62-7.62V75.124c0-4.209,3.412-7.62,7.62-7.62h0.759c4.209,0,7.62,3.412,7.62,7.62V85.884z"/>
			</g>
			<g>
				<path fill="#3B98BF" d="M112.222,83.837c3.947,0.778,4.52,4.668,3.742,8.615l-0.459,2.052c-0.342,1.735,1.539,7.973-0.912,12.12
					c-3.125,5.287-8.63,7.686-10.515,7.314c-0.474-0.093-7.602-2.966-7.58-6.857c0.012-2.073,7.506-6.4,7.506-6.4v-2.24
					c0,0-4.343-0.818-6.911-1.324l-10.294-2.01c-3.947-0.778-5.104-3.901-4.326-7.848l0.24-1.337
					c0.778-3.947,3.147-7.282,7.094-6.504L112.222,83.837z"/>
				<path fill="none" stroke="#FFFFFF" stroke-width="3" stroke-linecap="round" stroke-miterlimit="10" d="M117.17,87.423
					c-1.016-1.796-2.778-3.159-4.949-3.587L91.28,79.417c-3.947-0.778-7.813,1.815-8.591,5.762l-0.263,1.337
					c-0.778,3.947,1.815,7.813,5.762,8.591l8.155,2.01c1.934,0.381,4.161,0.858,6.161,1.324v2.24c0,0-14.528,7.314-14.528,25.143"/>
			</g>
		</g>
	</g>
	<g>
		<g>
			<circle fill="#FFFFFF" cx="86.504" cy="86.504" r="67.546"/>
		</g>
		<g>
			<g>
				<g>
					<g>
						<polygon fill="#FFFFFF" points="172.634,95.356 170.752,96.064 170.217,98.011 169.023,96.416 167.04,96.509 168.176,94.903 
							167.386,93.101 169.31,93.592 170.8,92.27 170.933,94.284 						"/>
					</g>
					<g>
						<path fill="#FFFFFF" d="M170.619,107.001l-1.93,0.452c0,0-0.189,0.468-0.399,0.929c-0.205,0.461-0.41,0.922-0.41,0.922
							l-0.946-1.738l-1.982-0.18c0,0,0.352-0.349,0.67-0.713c0.321-0.365,0.642-0.73,0.642-0.73l-0.512-1.887l1.834,0.748
							l1.676-1.102l-0.17,2.008L170.619,107.001z"/>
					</g>
					<g>
						<path fill="#FFFFFF" d="M167.043,118.265l-1.983,0.179c0,0-0.249,0.438-0.499,0.875c-0.268,0.428-0.536,0.856-0.536,0.856
							s-0.17-0.464-0.34-0.928c-0.186-0.464-0.371-0.929-0.371-0.929l-1.926-0.445l1.487-1.255l-0.23-1.932l1.711,0.991
							c0,0,0.454-0.212,0.907-0.424c0.441-0.223,0.882-0.446,0.882-0.446s-0.083,0.499-0.195,0.991
							c-0.117,0.49-0.233,0.98-0.233,0.98L167.043,118.265z"/>
					</g>
					<g>
						<path fill="#FFFFFF" d="M161.964,128.934l-1.996-0.098l-1.246,1.583c0,0-0.115-0.489-0.23-0.978
							c-0.12-0.485-0.241-0.971-0.241-0.971l-1.85-0.705l1.658-1.032c0,0,0.014-0.487,0.027-0.973
							c0.021-0.48,0.003-0.976,0.003-0.976l1.571,1.222l1.876-0.625c0,0-0.164,0.477-0.329,0.955
							c-0.157,0.482-0.348,0.948-0.348,0.948L161.964,128.934z"/>
					</g>
					<g>
						<path fill="#FFFFFF" d="M155.483,138.813l-1.97-0.372l-1.458,1.393l-0.197-1.991l-1.739-0.952l1.794-0.789
							c0,0,0.094-0.473,0.155-0.964c0.063-0.487,0.126-0.974,0.126-0.974l1.388,1.423l1.953-0.357l-0.927,1.795L155.483,138.813z"/>
					</g>
					<g>
						<polygon fill="#FFFFFF" points="147.724,147.724 145.818,147.083 144.175,148.255 144.257,146.264 142.661,145.084 
							144.555,144.555 145.084,142.661 146.264,144.257 148.255,144.175 147.083,145.818 						"/>
					</g>
					<g>
						<path fill="#FFFFFF" d="M138.813,155.483l-1.787-0.874l-1.795,0.927l0.357-1.953l-1.423-1.388c0,0,0.487-0.063,0.974-0.126
							c0.491-0.061,0.964-0.155,0.964-0.155l0.789-1.794l0.952,1.739l1.991,0.197l-1.393,1.458L138.813,155.483z"/>
					</g>
					<g>
						<path fill="#FFFFFF" d="M128.934,161.964l-1.649-1.104c0,0-0.466,0.191-0.948,0.348c-0.477,0.164-0.955,0.329-0.955,0.329
							l0.625-1.876l-1.222-1.571c0,0,0.495,0.018,0.976-0.003c0.487-0.014,0.973-0.027,0.973-0.027l1.032-1.658l0.705,1.85
							c0,0,0.485,0.12,0.971,0.241c0.489,0.115,0.978,0.23,0.978,0.23l-1.583,1.246L128.934,161.964z"/>
					</g>
					<g>
						<path fill="#FFFFFF" d="M118.265,167.043l-1.486-1.327c0,0-0.49,0.117-0.98,0.233c-0.491,0.112-0.991,0.195-0.991,0.195
							s0.223-0.441,0.446-0.882c0.212-0.454,0.424-0.907,0.424-0.907l-0.991-1.711l1.932,0.23l1.255-1.487l0.445,1.926
							c0,0,0.464,0.186,0.929,0.371c0.464,0.17,0.928,0.34,0.928,0.34s-0.428,0.268-0.856,0.536
							c-0.438,0.249-0.875,0.499-0.875,0.499L118.265,167.043z"/>
					</g>
					<g>
						<path fill="#FFFFFF" d="M107.001,170.619l-1.292-1.528l-2.008,0.17l1.102-1.676l-0.748-1.834l1.887,0.512
							c0,0,0.365-0.321,0.73-0.642c0.364-0.318,0.713-0.67,0.713-0.67l0.18,1.982l1.738,0.946c0,0-0.461,0.205-0.922,0.41
							c-0.461,0.21-0.929,0.399-0.929,0.399L107.001,170.619z"/>
					</g>
					<g>
						<polygon fill="#FFFFFF" points="95.356,172.634 94.284,170.933 92.27,170.8 93.592,169.31 93.101,167.386 94.903,168.176 
							96.509,167.04 96.416,169.023 98.011,170.217 96.064,170.752 						"/>
					</g>
					<g>
						<path fill="#FFFFFF" d="M83.55,173.008l-0.835-1.801c0,0-0.498-0.069-0.991-0.189c-0.493-0.109-0.986-0.218-0.986-0.218
							l1.509-1.275l-0.228-1.977c0,0,0.414,0.265,0.836,0.498c0.423,0.241,0.846,0.483,0.846,0.483l1.745-0.879l-0.36,1.947
							l1.419,1.421l-2,0.235L83.55,173.008z"/>
					</g>
					<g>
						<path fill="#FFFFFF" d="M71.797,171.813l-0.581-1.911c0,0-0.479-0.158-0.958-0.316c-0.478-0.156-0.953-0.324-0.953-0.324
							s0.423-0.264,0.843-0.544c0.417-0.277,0.833-0.555,0.833-0.555l0.041-1.979l1.53,1.211c0,0,0.463-0.152,0.926-0.303
							c0.46-0.145,0.918-0.318,0.918-0.318l-0.621,1.889l1.221,1.554c0,0-0.505,0.008-1.01,0.015
							c-0.507,0.019-1.009-0.016-1.009-0.016L71.797,171.813z"/>
					</g>
					<g>
						<path fill="#FFFFFF" d="M60.31,169.037L60,167.054l-1.8-0.91l1.808-0.85l0.313-1.959l1.343,1.43c0,0,0.477-0.071,0.961-0.184
							c0.479-0.104,0.959-0.208,0.959-0.208l-0.874,1.785l0.992,1.721l-2.002-0.272c0,0-0.347,0.363-0.695,0.726
							C60.658,168.686,60.31,169.037,60.31,169.037z"/>
					</g>
					<g>
						<path fill="#FFFFFF" d="M49.315,164.7c0,0-0.014-0.496-0.028-0.993c-0.006-0.503-0.011-1.005-0.011-1.005l-1.65-1.165
							l1.901-0.582l0.58-1.9c0,0,0.28,0.403,0.559,0.805c0.278,0.411,0.576,0.794,0.576,0.794l1.958-0.128l-1.109,1.645l0.741,1.855
							l-1.937-0.563L49.315,164.7z"/>
					</g>
					<g>
						<path fill="#FFFFFF" d="M39.025,158.89l0.224-1.97c0,0-0.374-0.34-0.739-0.69c-0.366-0.348-0.732-0.695-0.732-0.695
							l1.956-0.308l0.835-1.806c0,0,0.213,0.446,0.445,0.873c0.236,0.425,0.472,0.85,0.472,0.85l1.949,0.153l-1.321,1.476
							l0.474,1.949l-1.833-0.836L39.025,158.89z"/>
					</g>
					<g>
						<path fill="#FFFFFF" d="M29.619,151.742l0.494-1.926c0,0-0.336-0.375-0.654-0.767c-0.313-0.397-0.626-0.793-0.626-0.793
							s0.495-0.006,0.991-0.012c0.489-0.003,0.991-0.03,0.991-0.03l1.065-1.668l0.686,1.819l1.902,0.426l-1.508,1.281
							c0,0,0.047,0.499,0.095,0.998c0.06,0.493,0.12,0.985,0.12,0.985s-0.445-0.243-0.862-0.523
							c-0.424-0.273-0.848-0.545-0.848-0.545L29.619,151.742z"/>
					</g>
					<g>
						<path fill="#FFFFFF" d="M21.266,143.389l0.755-1.846c0,0-0.273-0.424-0.545-0.848c-0.28-0.417-0.523-0.862-0.523-0.862
							s0.493,0.06,0.985,0.12c0.499,0.047,0.998,0.094,0.998,0.094l1.281-1.508l0.427,1.902l1.819,0.686l-1.668,1.065
							c0,0-0.026,0.501-0.03,0.991c-0.006,0.495-0.012,0.991-0.012,0.991s-0.397-0.313-0.793-0.626
							c-0.392-0.318-0.767-0.654-0.767-0.654L21.266,143.389z"/>
					</g>
					<g>
						<path fill="#FFFFFF" d="M14.118,133.983l1.004-1.73l-0.836-1.833l1.949,0.474l1.476-1.321l0.153,1.949
							c0,0,0.425,0.236,0.85,0.472c0.427,0.232,0.873,0.445,0.873,0.445l-1.806,0.835l-0.308,1.956c0,0-0.348-0.366-0.695-0.732
							c-0.35-0.365-0.69-0.739-0.69-0.739L14.118,133.983z"/>
					</g>
					<g>
						<path fill="#FFFFFF" d="M8.308,123.693l1.238-1.581l-0.563-1.937l1.855,0.741l1.645-1.109l-0.128,1.958
							c0,0,0.383,0.298,0.794,0.576c0.403,0.28,0.805,0.559,0.805,0.559l-1.9,0.58l-0.582,1.901l-1.165-1.65
							c0,0-0.502-0.006-1.005-0.011C8.804,123.707,8.308,123.693,8.308,123.693z"/>
					</g>
					<g>
						<path fill="#FFFFFF" d="M3.971,112.698c0,0,0.352-0.349,0.703-0.697c0.363-0.347,0.726-0.695,0.726-0.695l-0.272-2.002
							l1.721,0.992l1.785-0.874c0,0-0.104,0.479-0.208,0.959c-0.112,0.484-0.184,0.961-0.184,0.961l1.43,1.343L7.714,113
							l-0.85,1.808l-0.91-1.8L3.971,112.698z"/>
					</g>
					<g>
						<path fill="#FFFFFF" d="M1.195,101.211l1.597-1.181c0,0-0.035-0.501-0.016-1.009c0.008-0.505,0.015-1.01,0.015-1.01
							l1.554,1.221l1.889-0.621c0,0-0.173,0.459-0.318,0.918c-0.152,0.463-0.303,0.926-0.303,0.926l1.211,1.53l-1.979,0.041
							c0,0-0.277,0.417-0.555,0.833c-0.28,0.42-0.544,0.843-0.544,0.843s-0.168-0.474-0.324-0.953
							c-0.158-0.479-0.316-0.958-0.316-0.958L1.195,101.211z"/>
					</g>
					<g>
						<path fill="#FFFFFF" d="M0,89.458l1.756-0.954l0.235-2l1.421,1.419l1.947-0.36l-0.879,1.745c0,0,0.241,0.423,0.483,0.846
							c0.234,0.421,0.498,0.836,0.498,0.836l-1.977-0.228L2.208,92.27c0,0-0.109-0.493-0.218-0.986
							c-0.12-0.493-0.189-0.991-0.189-0.991L0,89.458z"/>
					</g>
					<g>
						<polygon fill="#FFFFFF" points="0.374,77.652 2.256,76.944 2.791,74.997 3.985,76.592 5.968,76.499 4.832,78.105 
							5.622,79.907 3.698,79.416 2.208,80.738 2.075,78.724 						"/>
					</g>
					<g>
						<path fill="#FFFFFF" d="M2.389,66.007l1.93-0.452c0,0,0.189-0.468,0.399-0.929c0.205-0.461,0.41-0.922,0.41-0.922l0.946,1.738
							l1.982,0.18c0,0-0.352,0.349-0.67,0.713c-0.321,0.365-0.642,0.73-0.642,0.73l0.512,1.887l-1.834-0.748l-1.676,1.102
							l0.17-2.008L2.389,66.007z"/>
					</g>
					<g>
						<path fill="#FFFFFF" d="M5.965,54.743l1.983-0.179c0,0,0.249-0.438,0.499-0.875c0.268-0.428,0.536-0.856,0.536-0.856
							s0.17,0.464,0.34,0.928c0.186,0.464,0.371,0.929,0.371,0.929l1.926,0.445l-1.487,1.255l0.23,1.932L8.653,57.33
							c0,0-0.454,0.212-0.907,0.424C7.305,57.977,6.864,58.2,6.864,58.2s0.083-0.499,0.195-0.991c0.116-0.49,0.233-0.98,0.233-0.98
							L5.965,54.743z"/>
					</g>
					<g>
						<path fill="#FFFFFF" d="M11.044,44.074l1.996,0.098l1.246-1.583c0,0,0.115,0.489,0.23,0.978
							c0.12,0.485,0.241,0.971,0.241,0.971l1.85,0.705l-1.658,1.032c0,0-0.014,0.487-0.027,0.973
							c-0.021,0.48-0.003,0.976-0.003,0.976l-1.571-1.222l-1.876,0.625c0,0,0.164-0.477,0.329-0.955
							c0.157-0.482,0.348-0.948,0.348-0.948L11.044,44.074z"/>
					</g>
					<g>
						<path fill="#FFFFFF" d="M17.525,34.195l1.97,0.372l1.458-1.393l0.197,1.991l1.739,0.952l-1.794,0.789
							c0,0-0.094,0.473-0.155,0.964c-0.063,0.487-0.126,0.974-0.126,0.974l-1.388-1.423l-1.953,0.357l0.927-1.795L17.525,34.195z"/>
					</g>
					<g>
						<polygon fill="#FFFFFF" points="25.284,25.284 27.19,25.925 28.833,24.753 28.751,26.744 30.347,27.924 28.453,28.453 
							27.924,30.347 26.744,28.751 24.753,28.833 25.925,27.19 						"/>
					</g>
					<g>
						<path fill="#FFFFFF" d="M34.195,17.525l1.787,0.874l1.795-0.927l-0.357,1.953l1.423,1.388c0,0-0.487,0.063-0.974,0.126
							c-0.491,0.061-0.964,0.155-0.964,0.155l-0.789,1.794l-0.952-1.739l-1.991-0.197l1.393-1.458L34.195,17.525z"/>
					</g>
					<g>
						<path fill="#FFFFFF" d="M44.074,11.044l1.649,1.104c0,0,0.466-0.191,0.948-0.348c0.477-0.164,0.955-0.329,0.955-0.329
							l-0.625,1.876l1.222,1.571c0,0-0.495-0.018-0.976,0.003c-0.487,0.014-0.973,0.027-0.973,0.027l-1.032,1.658l-0.705-1.85
							c0,0-0.485-0.12-0.971-0.241c-0.489-0.115-0.978-0.23-0.978-0.23l1.583-1.246L44.074,11.044z"/>
					</g>
					<g>
						<path fill="#FFFFFF" d="M54.743,5.965l1.486,1.327c0,0,0.49-0.117,0.98-0.233C57.7,6.947,58.2,6.864,58.2,6.864
							s-0.223,0.441-0.446,0.882c-0.212,0.454-0.424,0.907-0.424,0.907l0.991,1.711l-1.932-0.23l-1.255,1.487l-0.445-1.926
							c0,0-0.464-0.186-0.929-0.371c-0.464-0.17-0.928-0.34-0.928-0.34s0.428-0.268,0.856-0.536
							c0.438-0.249,0.875-0.499,0.875-0.499L54.743,5.965z"/>
					</g>
					<g>
						<path fill="#FFFFFF" d="M66.007,2.389l1.292,1.528l2.008-0.17l-1.102,1.676l0.748,1.834l-1.887-0.512
							c0,0-0.365,0.321-0.73,0.642c-0.364,0.318-0.713,0.67-0.713,0.67l-0.18-1.982l-1.738-0.946c0,0,0.461-0.205,0.922-0.41
							c0.461-0.21,0.929-0.399,0.929-0.399L66.007,2.389z"/>
					</g>
					<g>
						<polygon fill="#FFFFFF" points="77.652,0.374 78.724,2.075 80.738,2.208 79.416,3.698 79.907,5.622 78.105,4.832 
							76.499,5.968 76.592,3.985 74.997,2.791 76.944,2.256 						"/>
					</g>
					<g>
						<path fill="#FFFFFF" d="M89.458,0l0.835,1.801c0,0,0.498,0.069,0.991,0.189c0.493,0.109,0.986,0.218,0.986,0.218l-1.509,1.275
							l0.228,1.977c0,0-0.414-0.265-0.836-0.498c-0.423-0.241-0.846-0.483-0.846-0.483l-1.745,0.879l0.36-1.947l-1.419-1.421
							l2-0.235L89.458,0z"/>
					</g>
					<g>
						<path fill="#FFFFFF" d="M101.211,1.195l0.581,1.911c0,0,0.479,0.158,0.958,0.316c0.478,0.156,0.953,0.324,0.953,0.324
							s-0.423,0.264-0.843,0.544c-0.417,0.277-0.833,0.555-0.833,0.555l-0.041,1.979l-1.53-1.211c0,0-0.463,0.152-0.926,0.303
							c-0.46,0.145-0.918,0.318-0.918,0.318l0.621-1.889l-1.221-1.554c0,0,0.505-0.008,1.01-0.015
							c0.507-0.019,1.009,0.016,1.009,0.016L101.211,1.195z"/>
					</g>
					<g>
						<path fill="#FFFFFF" d="M112.698,3.971l0.31,1.983l1.8,0.91L113,7.714l-0.313,1.959l-1.343-1.43c0,0-0.477,0.071-0.961,0.184
							c-0.479,0.104-0.959,0.208-0.959,0.208l0.874-1.785l-0.992-1.721l2.002,0.272c0,0,0.347-0.363,0.695-0.726
							C112.35,4.322,112.698,3.971,112.698,3.971z"/>
					</g>
					<g>
						<path fill="#FFFFFF" d="M123.693,8.308c0,0,0.014,0.496,0.028,0.993c0.006,0.502,0.011,1.005,0.011,1.005l1.65,1.165
							l-1.901,0.582l-0.58,1.9c0,0-0.28-0.403-0.559-0.805c-0.278-0.411-0.576-0.794-0.576-0.794l-1.958,0.128l1.109-1.645
							l-0.741-1.855l1.937,0.563L123.693,8.308z"/>
					</g>
					<g>
						<path fill="#FFFFFF" d="M133.983,14.118l-0.224,1.97c0,0,0.374,0.34,0.739,0.69c0.366,0.348,0.732,0.695,0.732,0.695
							l-1.956,0.308l-0.835,1.806c0,0-0.213-0.446-0.445-0.873c-0.236-0.425-0.472-0.85-0.472-0.85l-1.949-0.153l1.321-1.476
							l-0.474-1.949l1.833,0.836L133.983,14.118z"/>
					</g>
					<g>
						<path fill="#FFFFFF" d="M143.389,21.266l-0.494,1.927c0,0,0.336,0.375,0.654,0.767c0.313,0.397,0.626,0.793,0.626,0.793
							s-0.495,0.006-0.991,0.012c-0.489,0.003-0.991,0.03-0.991,0.03l-1.065,1.668l-0.686-1.819l-1.902-0.427l1.508-1.281
							c0,0-0.047-0.499-0.094-0.998c-0.06-0.493-0.12-0.985-0.12-0.985s0.445,0.243,0.862,0.523
							c0.424,0.273,0.848,0.545,0.848,0.545L143.389,21.266z"/>
					</g>
					<g>
						<path fill="#FFFFFF" d="M151.742,29.619l-0.755,1.846c0,0,0.273,0.424,0.545,0.848c0.28,0.417,0.523,0.862,0.523,0.862
							s-0.493-0.06-0.985-0.12c-0.499-0.047-0.998-0.095-0.998-0.095l-1.281,1.508l-0.426-1.902l-1.819-0.686l1.668-1.065
							c0,0,0.026-0.501,0.03-0.991c0.006-0.495,0.012-0.991,0.012-0.991s0.397,0.313,0.793,0.626
							c0.392,0.318,0.767,0.654,0.767,0.654L151.742,29.619z"/>
					</g>
					<g>
						<path fill="#FFFFFF" d="M158.89,39.025l-1.004,1.73l0.836,1.833l-1.949-0.474l-1.476,1.321l-0.153-1.949
							c0,0-0.425-0.236-0.85-0.472c-0.427-0.232-0.873-0.445-0.873-0.445l1.806-0.835l0.308-1.956c0,0,0.348,0.366,0.695,0.732
							c0.35,0.365,0.69,0.739,0.69,0.739L158.89,39.025z"/>
					</g>
					<g>
						<path fill="#FFFFFF" d="M164.7,49.315l-1.238,1.581l0.563,1.937l-1.855-0.741l-1.645,1.109l0.128-1.958
							c0,0-0.383-0.298-0.794-0.576c-0.403-0.28-0.805-0.559-0.805-0.559l1.9-0.58l0.582-1.901l1.165,1.65
							c0,0,0.502,0.006,1.005,0.011C164.204,49.301,164.7,49.315,164.7,49.315z"/>
					</g>
					<g>
						<path fill="#FFFFFF" d="M169.037,60.31c0,0-0.352,0.349-0.703,0.697c-0.363,0.347-0.726,0.695-0.726,0.695l0.272,2.002
							l-1.721-0.992l-1.785,0.874c0,0,0.104-0.479,0.208-0.959c0.112-0.484,0.184-0.961,0.184-0.961l-1.43-1.343l1.959-0.313
							l0.85-1.808l0.91,1.8L169.037,60.31z"/>
					</g>
					<g>
						<path fill="#FFFFFF" d="M171.813,71.797l-1.597,1.181c0,0,0.035,0.501,0.016,1.009c-0.008,0.505-0.015,1.01-0.015,1.01
							l-1.554-1.221l-1.889,0.621c0,0,0.173-0.459,0.318-0.918c0.152-0.463,0.303-0.926,0.303-0.926l-1.211-1.53l1.979-0.041
							c0,0,0.277-0.417,0.555-0.833c0.28-0.42,0.544-0.843,0.544-0.843s0.168,0.474,0.324,0.953
							c0.158,0.479,0.316,0.958,0.316,0.958L171.813,71.797z"/>
					</g>
					<g>
						<path fill="#FFFFFF" d="M173.008,83.55l-1.756,0.954l-0.235,2l-1.421-1.419l-1.947,0.36l0.879-1.745
							c0,0-0.241-0.423-0.483-0.846c-0.234-0.421-0.498-0.836-0.498-0.836l1.977,0.228l1.275-1.509c0,0,0.109,0.493,0.218,0.986
							c0.12,0.493,0.189,0.991,0.189,0.991L173.008,83.55z"/>
					</g>
				</g>
			</g>
		</g>
		<g>
			<g>
				<path fill="#3B98BF" d="M103.035,79.163c3.171-2.74,7.79-2.64,10.265,0.224s1.904,7.448-1.267,10.189L74.52,121.991
					c-3.171,2.74-7.79,2.64-10.265-0.224c-2.474-2.863-1.904-7.448,1.267-10.189L103.035,79.163z"/>
				<path fill="none" stroke="#FFFFFF" stroke-width="2.969" stroke-miterlimit="10" d="M103.035,79.163
					c3.171-2.74,7.79-2.64,10.265,0.224s1.904,7.448-1.267,10.189L74.52,121.991c-3.171,2.74-7.79,2.64-10.265-0.224
					c-2.474-2.863-1.904-7.448,1.267-10.189L103.035,79.163z"/>
			</g>
			<g>
				<path fill="#3B98BF" d="M91.673,71.43c3.171-2.74,7.79-2.64,10.265,0.224c2.474,2.863,1.891,7.432-1.297,10.153L69.3,108.557
					c-3.188,2.721-9.072,3.933-13.076,2.695l-0.55-0.17c-4.004-1.239-4.685-4.495-1.514-7.235L91.673,71.43z"/>
				<path fill="none" stroke="#FFFFFF" stroke-width="2.969" stroke-miterlimit="10" d="M91.673,71.43
					c3.171-2.74,7.79-2.64,10.265,0.224c2.474,2.863,1.891,7.432-1.297,10.153L69.3,108.557c-3.188,2.721-9.072,3.933-13.076,2.695
					l-0.55-0.17c-4.004-1.239-4.685-4.495-1.514-7.235L91.673,71.43z"/>
			</g>
			<g>
				<path fill="#3B98BF" d="M75.67,65.555c3.171-2.74,7.79-2.64,10.265,0.224c2.474,2.863,1.904,7.448-1.267,10.189L57.42,99.512
					c-3.171,2.74-7.79,2.64-10.265-0.224S45.252,91.84,48.423,89.1L75.67,65.555z"/>
				<path fill="none" stroke="#FFFFFF" stroke-width="2.969" stroke-miterlimit="10" d="M75.67,65.555
					c3.171-2.74,7.79-2.64,10.265,0.224c2.474,2.863,1.904,7.448-1.267,10.189L57.42,99.512c-3.171,2.74-7.79,2.64-10.265-0.224
					S45.252,91.84,48.423,89.1L75.67,65.555z"/>
			</g>
			<g>
				<path fill="#D4522D" d="M91.914,45.444c6.088-5.261,15.373-4.584,20.634,1.504l20.83,24.105
					c5.261,6.088,4.584,15.373-1.504,20.634l-12.162,10.509c-6.088,5.261-15.373,4.584-20.634-1.504l-20.83-24.105
					c-5.261-6.088-4.584-15.373,1.504-20.634L91.914,45.444z"/>
				<path fill="none" stroke="#FFFFFF" stroke-width="2.969" stroke-miterlimit="10" d="M91.914,45.444
					c6.088-5.261,15.373-4.584,20.634,1.504l20.83,24.105c5.261,6.088,4.584,15.373-1.504,20.634l-12.162,10.509
					c-6.088,5.261-15.373,4.584-20.634-1.504l-20.83-24.105c-5.261-6.088-4.584-15.373,1.504-20.634L91.914,45.444z"/>
			</g>
			<path fill="#3B98BF" stroke="#FFFFFF" stroke-width="2.6884" stroke-miterlimit="10" d="M122.56,93.984l-28.056-26.48
				c0,0-13.191-5.481-16-8l7-10c-5.424-4.864-15.739-4.755-23.187,3.094l-19.26,21.476c-4.864,5.424-4.406,13.841,1.018,18.705
				l8.969,8.044c0.005,0.004,0.009,0.009,0.013,0.013L85.4,129.2c2.712,2.432,6.802,2.334,9.09-0.217
				c2.288-2.551,1.941-6.628-0.771-9.06l-8.932-8.472c0.173-0.172,0.351-0.337,0.517-0.52l12.135,11.344
				c1.054,0.946,2.297,1.535,3.561,1.772c2.078,0.603,4.311,0.115,5.73-1.467c0.647-0.722,1.049-1.588,1.217-2.506
				c0.706-2.364-0.071-5.177-2.188-7.076l-12.133-11.342l0.482-0.538l14.335,13.318c2.729,2.447,6.769,2.433,8.979-0.031
				c2.209-2.464,1.785-6.482-0.944-8.929l-13.965-13.155l0,0l11.728,10.938c2.826,2.534,7.009,2.519,9.297-0.032
				S125.385,96.517,122.56,93.984z"/>
			<path fill="#D4522D" d="M76.189,71.645c0,0,5.82,17.15,13.086,17.6s8.907-6.055,5.665-11.485
				c-1.081-1.811-1.922-4.008-5.078-9.122c-1.11-1.798,9.619-4.802,3.712-11.055c-4.004-4.239-12.25-0.927-13.556-1.114
				C77.044,56.043,76.189,71.645,76.189,71.645z"/>
			<g>
				<path fill="none" stroke="#FFFFFF" stroke-width="3" stroke-linecap="round" stroke-miterlimit="10" d="M117.193,60.37
					c-11.944,10.321-25.116,4.981-25.116,4.981l-2.262,2.488c0.846,1.609,1.678,3.219,2.542,4.735l3.237,6.468
					c1.764,3.094,0.675,7.069-2.419,8.833l-1.048,0.598c-3.094,1.764-7.069,0.675-8.833-2.419l-9.162-16.587
					c-0.97-1.702-1.077-3.671-0.462-5.391l8.85-10.205"/>
			</g>
			<g>
				<path fill="#D4522D" d="M52.638,96.705c3.171-2.74,7.79-2.64,10.265,0.224c2.474,2.863,1.904,7.448-1.267,10.189l-2.478,2.141
					c-3.171,2.74-7.79,2.64-10.265-0.224s-1.904-7.448,1.267-10.189L52.638,96.705z"/>
				<path fill="none" stroke="#FFFFFF" stroke-width="2.6884" stroke-miterlimit="10" d="M52.638,96.705
					c3.171-2.74,7.79-2.64,10.265,0.224c2.474,2.863,1.904,7.448-1.267,10.189l-2.478,2.141c-3.171,2.74-7.79,2.64-10.265-0.224
					s-1.904-7.448,1.267-10.189L52.638,96.705z"/>
			</g>
			<g>
				<path fill="#D4522D" d="M43.493,85.694c3.171-2.74,7.79-2.64,10.265,0.224s1.904,7.448-1.267,10.189l-1.333,1.152
					c-3.171,2.74-7.79,2.64-10.265-0.224s-1.904-7.448,1.267-10.189L43.493,85.694z"/>
				<path fill="none" stroke="#FFFFFF" stroke-width="2.6884" stroke-miterlimit="10" d="M43.493,85.694
					c3.171-2.74,7.79-2.64,10.265,0.224s1.904,7.448-1.267,10.189l-1.333,1.152c-3.171,2.74-7.79,2.64-10.265-0.224
					s-1.904-7.448,1.267-10.189L43.493,85.694z"/>
			</g>
			<g>
				<path fill="#D4522D" d="M60.512,110.406c2.815-2.432,7.142-2.08,9.616,0.784c2.474,2.863,2.196,7.196-0.619,9.629
					c-2.815,2.432-7.142,2.08-9.616-0.784S57.697,112.839,60.512,110.406z"/>
				<path fill="none" stroke="#FFFFFF" stroke-width="2.6884" stroke-miterlimit="10" d="M60.512,110.406
					c2.815-2.432,7.142-2.08,9.616,0.784c2.474,2.863,2.196,7.196-0.619,9.629c-2.815,2.432-7.142,2.08-9.616-0.784
					S57.697,112.839,60.512,110.406z"/>
			</g>
			<g>
				<path fill="#D4522D" d="M70.12,120.609c2.049-1.771,5.75-0.876,8.224,1.987c2.474,2.863,2.822,6.655,0.773,8.425
					c-2.049,1.771-5.75,0.876-8.224-1.987C68.419,126.171,68.071,122.38,70.12,120.609z"/>
				<path fill="none" stroke="#FFFFFF" stroke-width="2.6884" stroke-miterlimit="10" d="M70.12,120.609
					c2.049-1.771,5.75-0.876,8.224,1.987c2.474,2.863,2.822,6.655,0.773,8.425c-2.049,1.771-5.75,0.876-8.224-1.987
					C68.419,126.171,68.071,122.38,70.12,120.609z"/>
			</g>
		</g>
	</g>
</g>
</svg>
